<?xml version="1.0" encoding="UTF-8" standalone="no"?>
<!-- Created with Inkscape (http://www.inkscape.org/) -->

<svg
   xmlns:dc="http://purl.org/dc/elements/1.1/"
   xmlns:cc="http://creativecommons.org/ns#"
   xmlns:rdf="http://www.w3.org/1999/02/22-rdf-syntax-ns#"
   xmlns:svg="http://www.w3.org/2000/svg"
   xmlns="http://www.w3.org/2000/svg"
   xmlns:sodipodi="http://sodipodi.sourceforge.net/DTD/sodipodi-0.dtd"
   xmlns:inkscape="http://www.inkscape.org/namespaces/inkscape"
   width="202.27039mm"
   height="77.816849mm"
   viewBox="0 0 202.27039 77.816849"
   version="1.1"
   id="svg4687"
   sodipodi:docname="cyclicshift.svg"
   inkscape:version="0.92.5 (2060ec1f9f, 2020-04-08)">
  <defs
     id="defs4681" />
  <sodipodi:namedview
     id="base"
     pagecolor="#ffffff"
     bordercolor="#666666"
     borderopacity="1.0"
     inkscape:pageopacity="0.0"
     inkscape:pageshadow="2"
     inkscape:zoom="2.8284271"
     inkscape:cx="171.58542"
     inkscape:cy="294.1023"
     inkscape:document-units="mm"
     inkscape:current-layer="layer1"
     showgrid="false"
     fit-margin-top="0.1"
     fit-margin-left="0.1"
     fit-margin-bottom="0.1"
     fit-margin-right="0.1"
     inkscape:window-width="1920"
     inkscape:window-height="1019"
     inkscape:window-x="0"
     inkscape:window-y="29"
     inkscape:window-maximized="1" />
  <metadata
     id="metadata4684">
    <rdf:RDF>
      <cc:Work
         rdf:about="">
        <dc:format>image/svg+xml</dc:format>
        <dc:type
           rdf:resource="http://purl.org/dc/dcmitype/StillImage" />
        <dc:title />
      </cc:Work>
    </rdf:RDF>
  </metadata>
  <g
     inkscape:label="Layer 1"
     inkscape:groupmode="layer"
     id="layer1"
     transform="translate(11.269806,-89.198502)">
    <path
       style="fill:none;stroke:#000000;stroke-width:0.26458332px;stroke-linecap:butt;stroke-linejoin:miter;stroke-opacity:1"
       d="m 7.5406249,149.75937 c 0.044097,-0.22048 0.1004927,-0.43886 0.1322917,-0.66145 0.073495,-0.51447 -0.1102432,0 0,-0.66146 0.022926,-0.13755 0.1049438,-0.26014 0.1322916,-0.39688 0.017296,-0.0865 -0.017296,-0.1781 0,-0.26458 0.027348,-0.13674 0.1049438,-0.26014 0.1322917,-0.39688 0.017296,-0.0865 -0.017296,-0.1781 0,-0.26458 0.027348,-0.13674 0.1093666,-0.25932 0.1322917,-0.39687 0.021749,-0.1305 -0.021749,-0.26639 0,-0.39688 0.04585,-0.2751 0.187965,-0.52559 0.2645833,-0.79375 0.049949,-0.17482 0.082343,-0.35434 0.1322917,-0.52917 0.038309,-0.13408 0.093982,-0.26279 0.1322916,-0.39687 0.1613157,-0.56461 0.1281835,-0.57683 0.2645834,-1.19063 0.039442,-0.17749 0.068451,-0.35892 0.1322916,-0.52916 0.069245,-0.18465 0.1844892,-0.34896 0.2645834,-0.52917 0.7357967,-1.65554 -0.1490928,0.31499 0.3968749,-1.32292 0.062363,-0.18708 0.1844892,-0.34895 0.2645834,-0.52916 0.096446,-0.21701 0.1681371,-0.44446 0.2645831,-0.66146 0.08009,-0.18021 0.184489,-0.34896 0.264584,-0.52917 0.09645,-0.217 0.168137,-0.44445 0.264583,-0.66146 0.08009,-0.18021 0.176389,-0.35277 0.264583,-0.52916 0.0882,-0.17639 0.16881,-0.35678 0.264584,-0.52917 0.124872,-0.22477 0.272002,-0.43669 0.396875,-0.66146 0.420286,-0.75651 0.110038,-0.36349 0.661458,-1.19062 0.188763,-0.28315 0.742609,-0.96134 0.926042,-1.19063 0.352777,-0.44097 0.711628,-0.87715 1.058333,-1.32291 0.205004,-0.26358 0.721811,-0.9864 0.926041,-1.19063 0.311815,-0.31182 0.723523,-0.50677 1.058334,-0.79375 0.142048,-0.12175 0.244635,-0.28813 0.396875,-0.39687 0.146676,-0.10477 0.700734,-0.35933 0.926041,-0.39688 0.130492,-0.0218 0.264584,0 0.396875,0 0.132292,0 0.264584,0 0.396875,0 0.132292,0 0.264584,0 0.396875,0 0.132292,0 0.267153,-0.026 0.396875,0 0.145283,0.0291 0.604211,0.35871 0.661459,0.39688 0.264583,0.17638 0.549463,0.32559 0.79375,0.52916 0.143725,0.11977 0.264583,0.26459 0.396875,0.39688 0.132291,0.13229 0.277103,0.25315 0.396875,0.39687 0.101786,0.12215 0.172169,0.2675 0.264583,0.39688 0.128155,0.17941 0.289798,0.33642 0.396875,0.52916 0.115326,0.20759 0.168137,0.44446 0.264583,0.66146 0.0801,0.18021 0.18449,0.34896 0.264584,0.52917 0.0045,0.0101 0.527562,1.32003 0.529166,1.32292 0.107078,0.19273 0.289798,0.33642 0.396875,0.52916 0.115326,0.20759 0.158384,0.44906 0.264584,0.66146 0.229983,0.45997 0.563767,0.86295 0.79375,1.32292 0.1062,0.2124 0.149257,0.45387 0.264583,0.66146 0.107077,0.19273 0.274571,0.34571 0.396875,0.52916 0.142629,0.21394 0.254246,0.44752 0.396875,0.66146 0.122304,0.18346 0.280018,0.34219 0.396875,0.52917 0.10452,0.16723 0.160063,0.36193 0.264583,0.52916 0.116858,0.18697 0.264584,0.35278 0.396875,0.52917 0.132292,0.17639 0.240967,0.37326 0.396875,0.52917 0.155909,0.1559 0.373259,0.24096 0.529167,0.39687 0.155908,0.15591 0.264583,0.35278 0.396875,0.52917 0.264583,0.35278 0.529167,0.70555 0.79375,1.05833 0.132292,0.17639 0.264583,0.35278 0.396875,0.52917 0.132292,0.17639 0.280016,0.34219 0.396875,0.52917 0.104521,0.16723 0.160062,0.36193 0.264583,0.52916 0.473229,0.75717 0.288304,0.27302 0.661459,0.92604 0.09784,0.17123 0.149958,0.36869 0.264583,0.52917 0.108744,0.15224 0.264583,0.26458 0.396875,0.39688 0.132292,0.13229 0.264583,0.26458 0.396875,0.39687 0.08819,0.0882 0.167187,0.18667 0.264583,0.26458 0.124153,0.0993 0.272722,0.16526 0.396875,0.26459 0.0974,0.0779 0.157631,0.20041 0.264584,0.26458 0.119575,0.0717 0.267401,0.0805 0.396875,0.13229 0.09155,0.0366 0.167894,0.11296 0.264583,0.13229 0.129722,0.026 0.264583,0 0.396875,0 0.264583,0 0.529167,0 0.79375,0 0.132292,0 0.266382,0.0217 0.396875,0 0.137551,-0.0229 0.264583,-0.0882 0.396875,-0.13229 0.132292,-0.0441 0.264583,-0.0882 0.396875,-0.13229 0.132292,-0.0441 0.287986,-0.0452 0.396875,-0.13229 0.124153,-0.0993 0.152156,-0.28445 0.264583,-0.39688 1.040622,-1.04062 -0.289875,0.63889 0.79375,-0.66145 0.101785,-0.12215 0.162798,-0.27474 0.264584,-0.39688 0.541168,-0.6494 0.298309,-0.13334 0.79375,-0.92604 0.104521,-0.16724 0.160062,-0.36193 0.264583,-0.52917 0.116858,-0.18697 0.280016,-0.34219 0.396875,-0.52916 0.35569,-0.56911 0.52324,-1.24344 0.79375,-1.85209 0.240543,-0.54122 0.348173,-0.58731 0.529166,-1.19062 0.07541,-0.25137 0.225936,-1.24264 0.264584,-1.45521 0.120584,-0.66321 0.264673,-1.32337 0.396875,-1.98438 0.0441,-0.22048 0.109918,-0.43772 0.132291,-0.66145 0.02193,-0.2194 -0.01995,-0.44188 0,-0.66146 0.02429,-0.26714 0.108009,-0.52662 0.132292,-0.79375 0.01995,-0.21959 0,-0.44098 0,-0.66146 0,-0.22049 0,-0.44097 0,-0.66146 0,-0.26458 -0.02394,-0.53025 0,-0.79375 0.02035,-0.22393 0.111935,-0.43753 0.132292,-0.66146 0.02394,-0.2635 -0.02394,-0.53025 0,-0.79375 0.02035,-0.22393 0.111934,-0.43753 0.132291,-0.66146 0.04791,-0.52699 -0.04394,-1.06016 0,-1.5875 0.221697,-2.66036 0.05002,1.28414 0.264584,-1.71979 0.04084,-0.57181 -0.04397,-1.14821 0,-1.71979 0.02392,-0.31089 0.110074,-0.61502 0.132291,-0.92604 0.02199,-0.3079 -0.02053,-0.61805 0,-0.92604 0.02365,-0.35474 0.108644,-0.7036 0.132292,-1.05834 0.02053,-0.30799 -0.02199,-0.61814 0,-0.92604 0.02222,-0.31102 0.111551,-0.61492 0.132292,-0.92604 0.02347,-0.352 -0.02347,-0.70634 0,-1.05833 0.02074,-0.31113 0.09108,-0.61697 0.132291,-0.92604 0.04699,-0.35241 0.08531,-0.70593 0.132292,-1.05834 0.04121,-0.30908 0.08819,-0.61736 0.132292,-0.92604 0.0441,-0.30868 0.06696,-0.62115 0.132291,-0.92604 0.06726,-0.31391 0.197319,-0.61214 0.264584,-0.92604 0.06533,-0.3049 0.06696,-0.62115 0.132291,-0.92604 0.733193,-3.42156 -0.230917,1.81604 0.529167,-1.98438 0.22157,-1.10786 0.01252,-0.83131 0.396875,-1.98437 0.106201,-0.3186 0.290674,-0.60745 0.396875,-0.92605 0.114991,-0.34497 0.149593,-0.71335 0.264583,-1.05833 0.106202,-0.3186 0.272151,-0.61423 0.396875,-0.92604 0.139928,-0.34982 0.277731,-0.7009 0.396875,-1.05833 0.624478,-1.87344 -0.141851,0.0223 0.661459,-1.85209 0.132291,-0.30868 0.25614,-0.62112 0.396875,-0.92604 0.123962,-0.26858 0.290684,-0.51765 0.396875,-0.79375 0.115244,-0.29963 0.14111,-0.6297 0.264583,-0.92604 0.0989,-0.23735 0.290476,-0.42738 0.396875,-0.66146 0.115409,-0.2539 0.149175,-0.53985 0.264583,-0.79375 0.1064,-0.23408 0.264584,-0.44097 0.396875,-0.66146 0.132292,-0.22048 0.264584,-0.44097 0.396875,-0.66145 0.132292,-0.22049 0.239014,-0.4585 0.396875,-0.661463 0.306298,-0.393811 0.72688,-0.685451 1.058334,-1.058334 0.187589,-0.211039 0.341577,-0.450421 0.529166,-0.661458 0.165727,-0.186444 0.364903,-0.341437 0.529167,-0.529167 0.14519,-0.165933 0.264583,-0.352779 0.396875,-0.529166 0.17639,-0.220488 0.341577,-0.450422 0.529167,-0.661459 0.331454,-0.372885 0.705556,-0.705556 1.058333,-1.058333 0.503489,-0.503489 0.977622,-1.074036 1.5875,-1.455208 0.167233,-0.104521 0.357942,-0.166741 0.529167,-0.264584 0.138046,-0.07888 0.250735,-0.201953 0.396875,-0.264583 0.167116,-0.07162 0.352777,-0.0882 0.529166,-0.132292 0.17639,-0.0441 0.354346,-0.08234 0.529167,-0.132291 0.134083,-0.03831 0.258829,-0.112572 0.396875,-0.132292 0.174617,-0.02495 0.352777,0 0.529167,0 0.440973,0 0.881943,0 1.322916,0 0.264584,0 0.529167,0 0.79375,0 0.08819,0 0.178102,-0.0173 0.264584,0 0.136739,0.02735 0.259323,0.109366 0.396875,0.132292 0.130492,0.02175 0.266382,-0.02175 0.396875,0 0.137551,0.02291 0.264583,0.08819 0.396875,0.132291 0.283956,0.09465 0.418139,0.118592 0.661458,0.264584 0.136337,0.0818 0.254667,0.193476 0.396875,0.264583 0.124724,0.06236 0.277299,0.06055 0.396875,0.132292 0.106952,0.06417 0.167187,0.186666 0.264583,0.264583 0.36168,0.289343 0.836729,0.498835 1.190625,0.79375 0.632442,0.527034 0.188447,0.226137 0.661459,0.79375 0.239543,0.287449 0.554206,0.506299 0.79375,0.79375 0.101785,0.122142 0.1857,0.258829 0.264583,0.396875 0.501436,0.877512 0.07884,0.183954 0.396875,0.926042 0.07768,0.181263 0.195339,0.344514 0.264583,0.529166 0.06384,0.170241 0.06845,0.358924 0.132292,0.529167 0.138488,0.369303 0.390678,0.689028 0.529166,1.058335 0.06384,0.17024 0.06845,0.35892 0.132292,0.52917 0.06924,0.18465 0.184489,0.34895 0.264583,0.52916 0.552085,1.24219 0.03857,0.11569 0.396875,1.19063 0.150191,0.45056 0.392692,0.868 0.529167,1.32291 0.06461,0.21537 0.06768,0.44609 0.132292,0.66146 0.06824,0.22746 0.196347,0.434 0.264583,0.66146 0.06461,0.21537 0.06768,0.44609 0.132292,0.66146 0.06824,0.22745 0.196347,0.434 0.264583,0.66146 0.129223,0.43074 0.167029,0.88392 0.264583,1.32291 0.21135,0.95108 0.03674,0.1102 0.396875,1.19063 0.114991,0.34497 0.149593,0.71335 0.264584,1.05833 0.07509,0.22528 0.189489,0.43618 0.264583,0.66146 0.128564,0.38569 0.13602,0.80493 0.264583,1.19062 0.06236,0.18709 0.186899,0.34791 0.264584,0.52917 0.109863,0.25635 0.139859,0.5443 0.264583,0.79375 0.0711,0.14221 0.193479,0.25467 0.264583,0.39688 0.326033,0.65206 -0.10863,0.16186 0.396875,0.79375 0.07791,0.0974 0.200412,0.15763 0.264584,0.26458 0.07174,0.11957 0.06993,0.27215 0.132291,0.39687 0.07111,0.14221 0.19348,0.25467 0.264584,0.39688 0.06236,0.12472 0.0805,0.2674 0.132291,0.39687 0.03662,0.0916 0.09567,0.17303 0.132292,0.26459 0.532672,1.33168 -0.103293,-0.28088 0.132292,0.66146 0.01447,0.0579 0.357822,0.74167 0.396875,0.79375 0.07483,0.0998 0.189748,0.1648 0.264583,0.26458 0.160655,0.21421 0.06227,0.262 0.264583,0.39687 0.08204,0.0547 0.194861,0.0626 0.264584,0.1323 0.06972,0.0697 0.06257,0.19485 0.132291,0.26458 0.0085,0.008 0.504524,0.24815 0.529167,0.26458 0.05189,0.0346 0.08819,0.0882 0.132292,0.13229 0.08819,0.0882 0.176389,0.17639 0.264583,0.26459 0.0441,0.0441 0.0804,0.0977 0.132292,0.13229 0.164086,0.10939 0.36508,0.15519 0.529166,0.26458 0.05189,0.0346 0.0804,0.0977 0.132292,0.13229 0.251172,0.16745 0.377113,0.1323 0.661458,0.1323 0.0441,0 0.09046,0.0139 0.132292,0 0.18709,-0.0624 0.346062,-0.19135 0.529167,-0.26459 0.129474,-0.0518 0.267401,-0.0805 0.396875,-0.13229 0.09155,-0.0366 0.173032,-0.0957 0.264583,-0.13229 0.129474,-0.0518 0.277299,-0.0606 0.396875,-0.13229 0.106953,-0.0642 0.167188,-0.18667 0.264583,-0.26459 0.520311,-0.41625 0.322374,-0.0958 0.79375,-0.66145 0.101786,-0.12215 0.17217,-0.2675 0.264584,-0.39688 0.256309,-0.35883 0.560035,-0.68439 0.79375,-1.05833 0.104521,-0.16724 0.160062,-0.36194 0.264583,-0.52917 0.233714,-0.37394 0.579596,-0.67286 0.79375,-1.05833 0.115327,-0.20759 0.149257,-0.45387 0.264583,-0.66146 0.107077,-0.19274 0.274572,-0.34571 0.396875,-0.52917 0.551421,-0.82713 0.241171,-0.43411 0.661459,-1.19062 0.371046,-0.66789 0.37951,-0.55625 0.661458,-1.19063 0.192892,-0.43401 0.352777,-0.88194 0.529167,-1.32291 0.08819,-0.22049 0.196347,-0.43401 0.264583,-0.66146 0.536591,-1.78864 -0.329017,0.49181 0.396875,-1.32292 0.784307,-1.96077 -0.2124,0.4779 0.529167,-1.19062 0.09645,-0.21701 0.168137,-0.44446 0.264583,-0.66146 0.0801,-0.18021 0.184489,-0.34896 0.264583,-0.52917 0.192892,-0.43401 0.316767,-0.89812 0.529167,-1.32292 0.11499,-0.22998 0.281884,-0.43147 0.396875,-0.66145 0.106201,-0.21241 0.166317,-0.44528 0.264583,-0.66146 0.12241,-0.2693 0.290685,-0.51766 0.396875,-0.79375 0.115245,-0.29964 0.170172,-0.61921 0.264584,-0.92604 0.08202,-0.26657 0.182565,-0.52719 0.264583,-0.79375 1.073888,-3.490146 -0.611984,1.71355 0.661458,-1.852087 0.107974,-0.302331 0.149339,-0.626409 0.264584,-0.926041 0.10619,-0.276098 0.272912,-0.525166 0.396875,-0.79375 1.119258,-2.425065 -0.251447,0.328694 0.79375,-1.5875 0.14165,-0.259694 0.244681,-0.540094 0.396875,-0.79375 7.93e-4,-0.0013 0.790019,-1.053111 0.79375,-1.058334 0.09241,-0.129381 0.152156,-0.28445 0.264583,-0.396875 0.322231,-0.322233 0.500983,-0.275431 0.926042,-0.396875 0.134082,-0.03831 0.258828,-0.112572 0.396875,-0.132291 1.610785,-0.230114 3.002219,1.574784 3.704166,2.778125 0.14905,0.255516 0.25663,0.533294 0.396875,0.79375 0.686522,1.274969 0.412695,0.600863 1.058333,1.984375 0.142021,0.304326 0.254855,0.621712 0.396875,0.926041 0.333587,0.714828 0.705557,1.411112 1.058334,2.116672 0.529166,1.05833 1.058331,2.11666 1.587501,3.17499 0.17639,0.35278 0.36122,0.70146 0.52917,1.05834 0.18492,0.39297 0.35277,0.79375 0.52916,1.19062 0.35278,0.79375 0.72126,1.58071 1.05834,2.38125 0.3686,0.87545 0.70555,1.76389 1.05833,2.64584 0.33202,0.83005 0.78943,1.93298 1.05833,2.77812 0.15245,0.47912 0.24443,0.97609 0.39688,1.45521 0.15649,0.49185 0.37267,0.96336 0.52916,1.45521 0.50615,1.59073 0.31209,1.39129 0.79375,3.04271 0.15618,0.53547 0.37299,1.05202 0.52917,1.5875 0.50403,1.72811 0.31255,1.51997 0.79375,3.30729 0.15593,0.57916 0.37324,1.14062 0.52917,1.71979 0.15295,0.5681 0.24392,1.15169 0.39687,1.71979 0.15593,0.57916 0.37324,1.14063 0.52917,1.71979 0.15295,0.5681 0.21757,1.15945 0.39687,1.71979 0.17472,0.54599 0.46017,1.05074 0.66146,1.5875 1.12385,2.99694 -0.11024,0.18301 1.19063,3.175 1.15533,2.65728 0.13126,0.26253 1.45521,2.91042 0.23828,0.47658 0.41422,0.98321 0.66145,1.45521 0.23862,0.45554 0.52917,0.88194 0.79375,1.32292 0.26459,0.44097 0.52917,0.88194 0.79375,1.32291 0.26459,0.44097 0.50336,0.8985 0.79375,1.32292 0.28392,0.41495 0.63167,0.78303 0.92605,1.19062 0.86397,1.19627 0.72087,1.24914 1.71979,2.38125 0.33008,0.3741 0.71711,0.69437 1.05833,1.05834 2.68837,2.86759 -0.93142,-0.79913 1.98438,2.11666 0.30868,0.30868 0.59615,0.64014 0.92604,0.92605 0.33323,0.2888 0.70555,0.52916 1.05833,0.79375 1.39114,1.04335 0.68439,0.56003 2.11667,1.4552 0.35277,0.22049 0.69575,0.45751 1.05833,0.66146 0.68753,0.38674 1.42064,0.68712 2.11667,1.05834 0.31369,0.1673 0.59594,0.39712 0.92604,0.52916 0.002,8e-4 2.10063,0.52489 2.11666,0.52917 0.3102,0.0827 0.60783,0.22215 0.92605,0.26458 0.34968,0.0466 0.70633,-0.0235 1.05833,0 0.31112,0.0207 0.61423,0.13229 0.92604,0.13229 0.35552,0 0.7036,-0.10864 1.05833,-0.13229 0.308,-0.0205 0.62047,0.0437 0.92605,0 0.3178,-0.0454 0.61213,-0.19732 0.92604,-0.26458 0.30489,-0.0653 0.62115,-0.067 0.92604,-0.13229 0.90785,-0.19455 0.91775,-0.26044 1.71979,-0.66146 0.26458,-0.13229 0.53824,-0.24783 0.79375,-0.39688 0.72021,-0.42012 0.93949,-0.65061 1.5875,-1.19062 0.65844,-0.5487 0.88959,-0.70074 1.45521,-1.32292 0.46335,-0.50969 0.88194,-1.05833 1.32292,-1.5875 0.22048,-0.26458 0.44097,-0.52916 0.66145,-0.79375 0.22049,-0.26458 0.46542,-0.51058 0.66146,-0.79375 0.20237,-0.29231 0.35278,-0.61736 0.52917,-0.92604 0.17639,-0.30868 0.35278,-0.61736 0.52917,-0.92604 0.17639,-0.30868 0.37017,-0.60805 0.52916,-0.92604 0.15019,-0.30038 0.26459,-0.61737 0.39688,-0.92604 0.13229,-0.30869 0.28392,-0.60978 0.39687,-0.92605 0.10798,-0.30233 0.16307,-0.62148 0.26459,-0.92604 0.11914,-0.35743 0.27773,-0.7009 0.39687,-1.05833 0.10152,-0.30456 0.15661,-0.62371 0.26458,-0.92604 0.11296,-0.31627 0.29068,-0.60745 0.39688,-0.92604 0.11499,-0.34498 0.14959,-0.71336 0.26458,-1.05834 0.1062,-0.3186 0.28392,-0.60977 0.39688,-0.92604 0.33836,-0.94741 0.4756,-1.95598 0.79375,-2.91042 0.11914,-0.35743 0.28449,-0.69871 0.39687,-1.05833 0.21693,-0.69416 0.31224,-1.4225 0.52917,-2.11667 0.11238,-0.35961 0.29056,-0.69687 0.39687,-1.05833 0.11472,-0.39004 0.15578,-0.7989 0.26459,-1.19062 0.11196,-0.40309 0.27883,-0.78928 0.39687,-1.19063 0.10261,-0.34886 0.16198,-0.70947 0.26459,-1.05833 0.11804,-0.40135 0.27883,-0.78928 0.39687,-1.19063 0.10261,-0.34886 0.17639,-0.70555 0.26458,-1.05833 0.0882,-0.35278 0.1813,-0.70437 0.26459,-1.05833 0.0931,-0.39575 0.14987,-0.80059 0.26458,-1.19063 0.10631,-0.36146 0.26458,-0.70556 0.39688,-1.05833 0.13229,-0.35278 0.26458,-0.70556 0.39687,-1.05834 0.13229,-0.35277 0.23755,-0.71691 0.39688,-1.05833 0.15034,-0.32217 0.36186,-0.61234 0.52916,-0.92604 0.83176,-1.55954 0.22303,-0.60405 1.19063,-2.24896 0.21092,-0.35858 0.4575,-0.69575 0.66146,-1.05833 0.62065,-1.10338 0.46603,-1.12913 1.19062,-2.24896 0.23956,-0.37023 0.55419,-0.68811 0.79375,-1.05833 0.24664,-0.38118 0.43127,-0.7993 0.66146,-1.19063 0.21093,-0.35858 0.44097,-0.70555 0.66146,-1.05833 0.22048,-0.35278 0.42577,-0.71553 0.66146,-1.05834 0.43569,-0.63374 1.06177,-1.41483 1.5875,-1.98437 0.68288,-0.73979 0.94247,-0.92123 1.71979,-1.5875 0.30868,-0.26458 0.59819,-0.55333 0.92604,-0.79375 0.33547,-0.24601 0.70906,-0.43546 1.05833,-0.66146 1.87181,-1.21117 0.48925,-0.39296 2.11667,-1.32292"
       id="path4689"
       inkscape:connector-curvature="0" />
    <path
       style="fill:none;stroke:#0000ff;stroke-width:0.26458332px;stroke-linecap:butt;stroke-linejoin:miter;stroke-opacity:1"
       d="m 0.79374999,147.11354 c 0.1763889,0.0882 0.34606291,0.19134 0.52916661,0.26458 0.059339,0.0237 0.3221222,0 0.396875,0 0.2645834,0 0.5291667,0 0.79375,0 0.088195,0 0.1790221,-0.0214 0.2645834,0 0.09566,0.0239 0.1689229,0.10838 0.2645833,0.1323 0.085561,0.0214 0.176389,0 0.2645833,0 0.088194,0 0.176389,0 0.2645834,0 0.3527776,0 0.7055556,0 1.0583333,0 0.3086806,0 0.617361,0 0.9260416,0 0.176389,0 0.3541398,0.0219 0.5291667,0 0.1804135,-0.0226 0.3487531,-0.10975 0.5291666,-0.1323 0.3500536,-0.0437 0.7082798,0.0438 1.0583334,0 0.1804135,-0.0225 0.3487531,-0.10974 0.5291666,-0.13229 0.1750269,-0.0219 0.3545507,0.0249 0.5291667,0 0.1380461,-0.0197 0.2588289,-0.11257 0.396875,-0.13229 0.3928861,-0.0561 0.7961773,0.0438 1.1906251,0 0.180705,-0.0201 0.348753,-0.10974 0.529167,-0.13229 0.175026,-0.0219 0.353856,0.0195 0.529166,0 0.223478,-0.0248 0.437981,-0.10746 0.661459,-0.13229 0.35062,-0.039 0.707713,0.039 1.058333,0 0.223477,-0.0248 0.437981,-0.10747 0.661458,-0.13229 0.17531,-0.0195 0.352778,0 0.529167,0 0.396875,0 0.79375,0 1.190625,0 0.176389,0 0.35414,0.0219 0.529166,0 0.180414,-0.0225 0.348462,-0.11222 0.529167,-0.1323 0.438275,-0.0487 0.884133,0.0439 1.322917,0 0.223736,-0.0224 0.437721,-0.10991 0.661458,-0.13229 0.219392,-0.0219 0.442321,0.0243 0.661458,0 0.180706,-0.0201 0.348462,-0.11221 0.529167,-0.13229 0.219138,-0.0243 0.440972,0 0.661458,0 0.176389,0 0.352778,0 0.529167,0 0.617361,0 1.234722,0 1.852083,0 1.058334,0 2.116667,0 3.175,0 0.220486,0 0.440973,0 0.661459,0 0.220485,0 0.442065,-0.0219 0.661458,0 0.223737,0.0224 0.437721,0.10992 0.661458,0.13229 0.438785,0.0439 0.884132,-0.0439 1.322917,0 0.223737,0.0224 0.437721,0.10992 0.661458,0.13229 0.219393,0.0219 0.440973,0 0.661459,0 0.705556,0 1.41111,0 2.116666,0 1.940277,0 3.880557,0 5.820834,0 0.529166,0 1.058333,0 1.587499,0 0.264584,0 0.529948,0.0203 0.79375,0 0.310896,-0.0239 0.615019,-0.11007 0.926042,-0.13229 0.307896,-0.022 0.618271,0.0237 0.926042,0 0.267443,-0.0206 0.526444,-0.11001 0.79375,-0.13229 0.26367,-0.022 0.529947,0.0203 0.79375,0 0.310896,-0.0239 0.615304,-0.1064 0.926041,-0.13229 0.483394,-0.0403 0.971815,0.0403 1.455209,0 2.109467,-0.17579 -0.514866,-0.13229 1.5875,-0.13229 1.322916,0 2.645833,0 3.96875,0 0.264583,0 0.529166,0 0.79375,0 0.264583,0 0.529947,-0.0203 0.79375,0 0.310896,0.0239 0.615145,0.10837 0.926041,0.13229 0.263803,0.0203 0.529167,0 0.79375,0 0.308682,0 0.617361,0 0.926042,0 0.308681,0 0.618146,-0.022 0.926042,0 1.222218,0.0873 0.623535,0.22004 1.852083,0.13229 0.311023,-0.0222 0.614918,-0.11155 0.926042,-0.13229 0.658532,-0.0439 1.325843,0.0439 1.984375,0 2.833245,-0.35416 -0.711047,0.0444 2.116666,-0.13229 0.669774,-0.0134 1.318541,-0.2202 1.984375,-0.26459 0.351997,-0.0235 0.706242,0.022 1.058333,0 0.354831,-0.0222 0.703599,-0.10864 1.058334,-0.13229 0.307996,-0.0205 0.618045,0.0205 0.926041,0 0.066,-0.004 1.918375,-0.26018 1.984375,-0.26458 0.351997,-0.0235 0.706337,0.0235 1.058334,0 0.311123,-0.0207 0.615018,-0.11008 0.926041,-0.13229 0.307896,-0.022 0.618046,0.0205 0.926042,0 0.354735,-0.0237 0.703503,-0.11012 1.058333,-0.13229 0.66017,-0.0413 1.324383,0.044 1.984375,0 0.354735,-0.0237 0.703599,-0.10865 1.058334,-0.1323 0.659992,-0.044 1.324205,0.0413 1.984375,0 0.35483,-0.0222 0.703598,-0.10864 1.058333,-0.13229 0.307996,-0.0205 0.618045,0.0205 0.926042,0 0.354734,-0.0237 0.703503,-0.11011 1.058333,-0.13229 0.352092,-0.022 0.706242,0.022 1.058333,0 0.35483,-0.0222 0.703504,-0.11012 1.058334,-0.13229 0.70418,-0.044 1.412486,0.044 2.116666,0 0.35483,-0.0222 0.703503,-0.11012 1.058334,-0.13229 0.352091,-0.022 0.705556,0 1.058333,0 1.058333,0 2.116667,0 3.175,0 0.881943,0 1.76389,0 2.645833,0 0.440973,0 0.882555,-0.0232 1.322917,0 0.398764,0.021 0.791996,0.10884 1.190625,0.13229 0.352168,0.0207 0.705556,0 1.058333,0 0.352777,0 0.705557,0 1.058333,0 0.35278,0 0.70624,-0.022 1.05833,0 0.35483,0.0222 0.70351,0.11011 1.05834,0.13229 0.70418,0.044 1.41248,-0.044 2.11666,0 0.35483,0.0222 0.70351,0.11012 1.05834,0.13229 0.35209,0.022 0.70555,0 1.05833,0 0.35278,0 0.70556,0 1.05833,0 0.35278,0 0.70617,-0.0207 1.05834,0 0.39863,0.0234 0.79199,0.10884 1.19062,0.13229 0.70434,0.0414 1.41249,-0.044 2.11667,0 0.35483,0.0222 0.7036,0.10865 1.05833,0.1323 0.066,0.004 1.91838,-0.004 1.98438,0 0.31112,0.0207 0.61492,0.11154 0.92604,0.13229 0.70399,0.0469 1.41267,-0.0469 2.11667,0 0.31112,0.0207 0.61491,0.11155 0.92604,0.13229 0.35199,0.0235 0.70555,0 1.05833,0 0.66146,0 1.32292,0 1.98438,0 0.30868,0 0.61814,-0.022 0.92604,0 0.31102,0.0222 0.61502,0.11007 0.92604,0.13229 0.30789,0.022 0.61814,-0.022 0.92604,0 0.31102,0.0222 0.61502,0.11008 0.92604,0.13229 0.3079,0.022 0.61815,-0.022 0.92604,0 0.31103,0.0222 0.61502,0.11008 0.92605,0.13229 0.30789,0.022 0.61827,-0.0237 0.92604,0 0.26744,0.0206 0.5263,0.11172 0.79375,0.1323 0.30777,0.0237 0.61827,-0.0237 0.92604,0 0.26744,0.0206 0.52644,0.11001 0.79375,0.13229 0.26367,0.022 0.52917,0 0.79375,0 0.30868,0 0.61736,0 0.92604,0 1.36701,0 2.73403,0 4.10104,0 0.26458,0 0.52917,0 0.79375,0 0.26458,0 0.53026,-0.0239 0.79375,0 0.22393,0.0203 0.43753,0.11193 0.66146,0.13229 0.2635,0.0239 0.52917,0 0.79375,0 0.22049,0 0.44097,0 0.66146,0 0.26458,0 0.53008,-0.022 0.79375,0 2.02247,0.16854 -0.30571,0.13229 1.45521,0.13229 0.48507,0 0.97014,0 1.4552,0 0.26459,0 0.53008,-0.022 0.79375,0 0.26731,0.0223 0.52645,0.11001 0.79375,0.13229 0.26368,0.022 0.52917,0 0.79375,0 0.26459,0 0.52917,0 0.79375,0 0.79375,0 1.5875,0 2.38125,0 0.52917,0 1.05834,0 1.5875,0 0.26459,0 0.53026,0.024 0.79375,0 0.22393,-0.0204 0.43753,-0.11193 0.66146,-0.13229 0.527,-0.0479 1.06016,0.0439 1.5875,0 0.26731,-0.0223 0.52645,-0.11002 0.79375,-0.13229 0.26367,-0.022 0.53026,0.0239 0.79375,0 0.22393,-0.0204 0.43753,-0.11194 0.66146,-0.13229 0.2635,-0.0239 0.53026,0.0239 0.79375,0 0.22393,-0.0204 0.44023,-0.0921 0.66146,-0.13229 0.26391,-0.048 0.52662,-0.10801 0.79375,-0.1323 0.21958,-0.0199 0.44207,0.0219 0.66146,0 0.22373,-0.0224 0.44097,-0.0882 0.66146,-0.13229 0.26458,-0.0441 0.52662,-0.10801 0.79375,-0.13229 0.21958,-0.0199 0.44187,0.0199 0.66145,0 0.26714,-0.0243 0.52662,-0.10801 0.79375,-0.13229 0.21958,-0.02 0.44188,0.0199 0.66146,0 0.26713,-0.0243 0.52662,-0.10801 0.79375,-0.13229 0.21958,-0.0199 0.44188,0.0199 0.66146,0 0.26713,-0.0243 0.52662,-0.10801 0.79375,-0.13229 0.21958,-0.0199 0.44207,0.0219 0.66146,0 0.22374,-0.0224 0.43753,-0.11194 0.66146,-0.1323 0.26349,-0.0239 0.53025,0.0239 0.79375,0 0.22393,-0.0204 0.43753,-0.11193 0.66146,-0.13229 0.26349,-0.0239 0.53008,0.022 0.79375,0 0.2673,-0.0223 0.52644,-0.11001 0.79375,-0.13229 0.26367,-0.022 0.53008,0.022 0.79375,0 0.2673,-0.0223 0.52644,-0.11002 0.79375,-0.13229 0.26367,-0.022 0.53008,0.022 0.79375,0 0.2673,-0.0223 0.52916,-0.0882 0.79375,-0.13229 0.30868,-0.0441 0.61514,-0.10838 0.92604,-0.13229 0.2638,-0.0203 0.52916,0 0.79375,0 0.26458,-0.0441 0.52644,-0.11002 0.79375,-0.1323 0.26367,-0.022 0.53025,0.0239 0.79375,0 0.22393,-0.0204 0.43753,-0.11193 0.66146,-0.13229 0.26349,-0.0239 0.52994,0.0203 0.79375,0 0.31089,-0.0239 0.61514,-0.10838 0.92604,-0.13229 0.48364,-0.0372 0.97213,0.0439 1.45521,0 0.26713,-0.0243 0.52644,-0.11002 0.79375,-0.13229 0.26367,-0.022 0.52916,0 0.79375,0 0.26458,0 0.52916,0 0.79375,0 0.22048,0 0.44206,0.0219 0.66145,0 0.22374,-0.0224 0.43773,-0.10992 0.66146,-0.13229 0.2194,-0.0219 0.44098,0 0.66146,0 0.26458,0 0.52917,0 0.79375,0 1.10243,0 2.20486,0 3.30729,0 0.17639,0 0.35278,0 0.52917,0 0.17639,0 0.35455,-0.0249 0.52917,0 0.13804,0.0197 0.25932,0.10936 0.39687,0.13229 0.13049,0.0217 0.26715,-0.026 0.39688,0 0.0967,0.0193 0.18253,0.0776 0.26458,0.13229 0.29255,0.19503 0.0493,0.47984 -0.13229,0.66146"
       id="path4695"
       inkscape:connector-curvature="0" />
    <path
       style="fill:none;stroke:#0000f6;stroke-width:0.26458332px;stroke-linecap:butt;stroke-linejoin:miter;stroke-opacity:1"
       d="m 1.5875,134.67812 c 0.2204861,-0.0441 0.4409722,-0.0882 0.6614583,-0.13229 0.088194,-0.0441 0.168923,-0.10838 0.2645833,-0.13229 0.085561,-0.0214 0.1781017,0.0173 0.2645834,0 0.1367395,-0.0274 0.2645833,-0.0882 0.396875,-0.13229 0.3952165,-0.13174 0.7901013,-0.28244 1.1906249,-0.39688 1.6455959,-0.47017 3.3458756,-0.75266 5.0270833,-1.05833 0.6142278,-0.11168 0.9283738,-0.21388 1.5874998,-0.26458 0.263804,-0.0203 0.530081,0.022 0.79375,0 0.267307,-0.0223 0.526307,-0.11172 0.79375,-0.13229 0.307771,-0.0237 0.618146,0.022 0.926042,0 0.622044,-0.0444 1.230039,-0.22016 1.852083,-0.26459 0.307896,-0.022 0.618146,0.022 0.926042,0 0.622044,-0.0444 1.230291,-0.21675 1.852083,-0.26458 0.263804,-0.0203 0.529946,0.0203 0.79375,0 0.621792,-0.0478 1.230039,-0.22015 1.852083,-0.26458 0.877468,-0.0627 1.768366,0.0627 2.645834,0 0.311022,-0.0222 0.615019,-0.11008 0.926041,-0.1323 0.307897,-0.022 0.617361,0 0.926042,0 0.617361,0 1.234723,0 1.852083,0 0.264584,0 0.529948,0.0203 0.79375,0 0.310896,-0.0239 0.615146,-0.10837 0.926042,-0.13229 0.263803,-0.0203 0.529167,0 0.79375,0 0.61736,0 1.234723,0 1.852083,0 0.308682,0 0.618271,0.0237 0.926042,0 0.267443,-0.0206 0.526306,-0.11172 0.79375,-0.13229 0.307771,-0.0237 0.618146,0.022 0.926042,0 0.311023,-0.0222 0.615145,-0.10838 0.926041,-0.13229 0.263803,-0.0203 0.529167,0 0.79375,0 0.308682,0 0.61736,0 0.926042,0 0.837848,0 1.675693,0 2.513542,0 0.573264,0 1.146526,0 1.719791,0 0.264583,0 0.529947,-0.0203 0.79375,0 0.310896,0.0239 0.615146,0.10838 0.926042,0.13229 0.263803,0.0203 0.529166,0 0.79375,0 0.264583,0 0.529166,0 0.79375,0 0.308681,0 0.61827,-0.0237 0.926041,0 0.267444,0.0206 0.526307,0.11172 0.79375,0.13229 0.615543,0.0473 1.236541,-0.0474 1.852084,0 0.267443,0.0206 0.526306,0.11172 0.79375,0.13229 0.307771,0.0237 0.618146,-0.022 0.926041,0 0.311023,0.0222 0.615019,0.11008 0.926042,0.1323 0.307896,0.022 0.618046,-0.0205 0.926042,0 0.354734,0.0237 0.703598,0.10864 1.058333,0.13229 0.659993,0.044 1.324205,-0.0413 1.984375,0 0.35483,0.0222 0.70281,0.13229 1.058333,0.13229 0.355524,0 0.703424,-0.11142 1.058334,-0.13229 0.396189,-0.0233 0.79375,0 1.190625,0 0.352776,0 0.705556,0 1.058333,0 0.396875,0 0.794361,0.022 1.190625,0 0.398703,-0.0221 0.791922,-0.11015 1.190625,-0.13229 0.396264,-0.022 0.794361,0.022 1.190625,0 0.398703,-0.0222 0.791922,-0.11015 1.190625,-0.1323 0.396264,-0.022 0.79375,0 1.190625,0 0.837848,0 1.675693,0 2.513541,0 2.954515,0 5.909027,0 8.863542,0 0.926042,0 1.852083,0 2.778125,0 0.440973,0 0.882494,0.022 1.322917,0 0.442618,-0.0221 0.881943,-0.0882 1.322916,-0.13229 0.485069,0 0.970688,0.0231 1.455209,0 0.442669,-0.0211 0.880297,-0.11016 1.322916,-0.13229 0.440423,-0.022 0.881944,0 1.322917,0 0.485068,0 0.97014,0 1.455208,0 0.440973,0 0.882494,0.022 1.322917,0 0.442619,-0.0221 0.880298,-0.11016 1.322917,-0.13229 0.440422,-0.022 0.881943,0 1.322916,0 0.440973,0 0.881944,0 1.322917,0 0.440973,0 0.882443,0.021 1.322916,0 0.486519,-0.0232 0.96869,-0.10913 1.455209,-0.13229 0.924994,-0.044 1.853131,0.044 2.778125,0 0.929179,-0.0443 1.848945,-0.22034 2.778126,-0.26459 0.44047,-0.021 0.88244,0.021 1.32292,0 0.97303,-0.0463 1.93738,-0.21824 2.91041,-0.26458 0.44048,-0.021 0.88245,0.021 1.32292,0 0.48652,-0.0232 0.97033,-0.0861 1.45521,-0.13229 0.88235,-0.084 1.76348,-0.18055 2.64583,-0.26458 0.48488,-0.0462 0.96869,-0.10913 1.45521,-0.1323 0.44047,-0.021 0.88249,0.022 1.32292,0 0.44261,-0.0221 0.88194,-0.0882 1.32291,-0.13229 0.88195,-0.0882 1.76389,-0.17639 2.64584,-0.26458 0.44097,-0.0441 0.88029,-0.11016 1.32291,-0.13229 0.44042,-0.022 0.88195,0 1.32292,0 0.44097,-0.0441 0.88036,-0.109 1.32292,-0.13229 0.79265,-0.0417 1.58872,0.044 2.38125,0 0.3987,-0.0221 0.79192,-0.11015 1.19062,-0.1323 0.39626,-0.022 0.79375,0 1.19063,0 0.39687,0 0.79375,0 1.19062,0 0.79375,0 1.5875,0 2.38125,0 0.39688,0 0.79436,0.022 1.19063,0 0.3987,-0.0221 0.79199,-0.10884 1.19062,-0.13229 0.74836,-0.044 1.5006,0.044 2.24896,0 0.35491,-0.0209 0.7035,-0.11011 1.05833,-0.13229 0.35209,-0.022 0.70617,0.0207 1.05833,0 0.39863,-0.0234 0.792,-0.10884 1.19063,-0.13229 0.35217,-0.0207 0.70556,0 1.05833,0 0.35278,0 0.70556,0 1.05834,0 0.35277,0 0.70624,0.022 1.05833,0 0.35483,-0.0222 0.7035,-0.11012 1.05833,-0.13229 0.35209,-0.022 0.70556,0 1.05834,0 0.97014,0 1.94027,0 2.91041,0 2.60174,0 5.20348,0 7.80521,0 1.6316,0 3.26319,0 4.89479,0 0.48507,0 0.97014,0 1.45521,0 0.17639,0 0.35278,0 0.52917,0 0.0882,0 0.1781,0.0173 0.26458,0 0.13674,-0.0274 0.26014,-0.10495 0.39688,-0.13229 0.0865,-0.0173 0.17639,0 0.26458,0 0.17639,0 0.35278,0 0.52917,0 0.61736,0 1.23472,0 1.85208,0 0.20064,0 0.88072,0.0296 1.05833,0 0.13755,-0.0229 0.25933,-0.10937 0.39688,-0.1323 0.30448,-0.0507 0.62046,0.0437 0.92604,0 0.13805,-0.0197 0.26279,-0.094 0.39687,-0.13229 0.17483,-0.0499 0.34918,-0.10658 0.52917,-0.13229 0.26193,-0.0374 0.53431,0.0519 0.79375,0 0.0967,-0.0193 0.16892,-0.10838 0.26458,-0.13229 0.11993,-0.03 0.50778,0 0.66146,0 0.0441,0 0.10111,0.0312 0.13229,0 0.0312,-0.0312 -0.0394,-0.11257 0,-0.13229 0.0438,-0.0219 0.55965,0 0.66146,0"
       id="path5240"
       inkscape:connector-curvature="0" />
    <path
       style="fill:none;stroke:#0000ff;stroke-width:0.26458332px;stroke-linecap:butt;stroke-linejoin:miter;stroke-opacity:1"
       d="m 2.6458333,115.09896 c 0.176389,0.13229 0.3199953,0.32715 0.5291667,0.39687 0.2091713,0.0697 0.4416216,-0.0169 0.6614583,0 0.354476,0.0273 0.7109245,0.0568 1.0583333,0.13229 2.7750706,0.60328 1.2267724,0.48348 4.1010416,1.05834 0.831755,0.16635 1.6709918,0.2989 2.5135418,0.39687 0.421381,0.049 6.338496,0.51996 6.614583,0.52917 1.498473,0.05 2.999159,-0.0405 4.497917,0 8.435355,0.22798 2.244421,0.34651 11.377083,0.52917 2.380774,0.0476 4.7625,0 7.14375,0 2.469443,0 4.93889,0 7.408333,0 8.290277,0 16.580556,0 24.870833,0 2.910417,0 5.820833,0 8.73125,0 2.734027,0 5.469625,0.0926 8.202083,0 1.795267,-0.0609 11.574373,-0.85518 13.758333,-1.05834 1.68062,-0.15633 7.05892,-0.71245 8.99583,-1.05833 1.15834,-0.20685 2.28978,-0.54379 3.43959,-0.79375 0.87888,-0.19106 1.76695,-0.33811 2.64583,-0.52917 0.13627,-0.0296 0.26159,-0.0985 0.39688,-0.13229 0.0428,-0.0107 0.11256,0.0394 0.13229,0 0.0394,-0.0789 -0.0819,-0.23183 0,-0.26458 0.20471,-0.0819 0.44097,0 0.66146,0 0.57326,0 1.14652,0 1.71979,0 1.80295,0 1.71545,0.0536 3.83646,-0.26459 0.97513,-0.14627 1.93895,-0.36021 2.91041,-0.52916 1.05707,-0.18384 2.11667,-0.35278 3.175,-0.52917 1.05833,-0.17639 2.11191,-0.3842 3.175,-0.52917 0.87822,-0.11975 1.77092,-0.1227 2.64583,-0.26458 0.7602,-0.12328 1.4956,-0.36936 2.24896,-0.52917 0.70223,-0.14895 1.41645,-0.23876 2.11667,-0.39687 0.66776,-0.15079 1.32024,-0.36314 1.98437,-0.52917 1.17508,-0.29377 2.35889,-0.57161 3.57188,-0.66146 0.5717,-0.0423 1.14653,0 1.71979,0 1.76389,0 3.52778,0 5.29167,0 0.74965,0 1.4993,0 2.24896,0 0.39687,0 0.79462,0.0264 1.19062,0 0.26764,-0.0178 0.52631,-0.11172 0.79375,-0.13229 0.43968,-0.0338 0.88194,0 1.32292,0 0.74965,0 1.4993,0 2.24896,0 0.22048,0 0.44097,0 0.66145,0 0.1323,0 0.27138,0.0418 0.39688,0 1.18097,-0.39365 -0.51436,-0.16907 0.92604,-0.52916 0.17112,-0.0428 0.35278,0 0.52917,0 0.26458,0 0.52916,0 0.79375,0 0.35277,0 0.70555,0 1.05833,0 0.22049,0 0.44622,-0.0478 0.66146,0 0.19251,0.0428 0.33954,0.2104 0.52917,0.26458 0.1272,0.0363 0.26967,-0.0363 0.39687,0 1.06409,0.30402 0.12801,0.26458 0.79375,0.26458"
       id="path5242"
       inkscape:connector-curvature="0" />
    <path
       style="fill:none;stroke:#0000ff;stroke-width:0.26458332px;stroke-linecap:butt;stroke-linejoin:miter;stroke-opacity:1"
       d="m 1.190625,101.07605 c 0.2645833,0 0.5338394,-0.0495 0.7937499,0 5.0853266,0.96863 -2.1943797,0.19401 5.8208331,1.32291 2.659067,0.37452 10.112796,0.84719 12.435417,1.05834 2.560728,0.23279 5.11439,0.53789 7.672916,0.79375 2.782163,0.27821 14.327815,1.39305 16.933333,1.5875 7.579389,0.56562 10.18412,0.56858 17.727084,0.79375 2.998573,0.0895 5.997302,0.17371 8.995833,0.26458 2.822305,0.0855 5.643433,0.21905 8.466666,0.26458 2.64549,0.0427 5.291667,0 7.9375,0 4.58611,0 9.172223,0 13.758333,0 1.85208,0 3.70481,0.0487 5.55625,0 3.35244,-0.0882 4.99638,-0.25947 8.20208,-0.79375 0.88718,-0.14786 1.75936,-0.3772 2.64584,-0.52916 0.65771,-0.11276 1.32614,-0.15488 1.98437,-0.26459 0.40103,-0.0668 0.7888,-0.20276 1.19063,-0.26458 0.17433,-0.0268 0.36183,0.0558 0.52916,0 0.11833,-0.0394 0.14626,-0.22514 0.26459,-0.26458 0.16734,-0.0558 0.35277,0 0.52916,0 0.61736,0 1.23473,0 1.85209,0 1.23472,0 2.46944,0 3.70416,0 0.48507,0 0.97075,0.0242 1.45521,0 1.87306,-0.0937 0.51089,-0.1072 2.24896,-0.39688 0.43714,-0.0729 0.88025,-0.11121 1.32292,-0.13229 0.48452,-0.0231 0.97014,0 1.4552,0 0.74966,0 1.49931,0 2.24896,0 2.95452,0 5.90903,0 8.86354,0 1.6757,0 3.35139,0 5.02709,0 0.39687,0 0.79375,0 1.19062,0 0.35278,0 0.70798,0.0412 1.05834,0 0.40377,-0.0475 0.79025,-0.19393 1.19062,-0.26458 0.35011,-0.0618 0.70593,-0.0853 1.05833,-0.1323 0.30908,-0.0412 0.61492,-0.11155 0.92605,-0.13229 0.35199,-0.0235 0.70555,0 1.05833,0 1.19062,0 2.38125,0 3.57187,0 0.35278,0 0.70798,0.0412 1.05834,0 0.40377,-0.0475 0.79196,-0.18485 1.19062,-0.26458 0.26303,-0.0526 0.52864,-0.0915 0.79375,-0.13229 0.15953,-0.0245 1.50627,-0.20635 1.71979,-0.26458 0.22911,-0.0625 0.42582,-0.23513 0.66146,-0.26459 0.48133,-0.0602 0.97014,0 1.45521,0 0.97014,0 1.94028,0 2.91042,0"
       id="path5244"
       inkscape:connector-curvature="0" />
    <path
       style="fill:none;stroke:#00ff00;stroke-width:1.16499996;stroke-linecap:butt;stroke-linejoin:miter;stroke-miterlimit:4;stroke-dasharray:none;stroke-opacity:1"
       d="m 8.8635416,146.58437 c -0.251659,-0.0629 -0.5165384,-0.28984 -0.6614584,0 -0.019722,0.0394 0.031181,0.10111 0,0.1323 -0.062363,0.0624 -0.2022205,-0.0624 -0.2645833,0 -0.031181,0.0312 -0.031181,0.1011 0,0.13229 0.031181,0.0312 0.1011103,-0.0312 0.1322917,0 0.031181,0.0312 0,0.0882 0,0.13229 0,0.0707 0.018931,0.62359 0,0.66146 -0.02789,0.0558 -0.1322917,0.0699 -0.1322917,0.13229 0,0.0624 0.1044022,0.0765 0.1322917,0.13229 0.019722,0.0394 -0.031181,0.10111 0,0.13229 0.031181,0.0312 0.1011102,-0.0312 0.1322916,0 0.031181,0.0312 -0.031181,0.10111 0,0.13229 0.031181,0.0312 0.1011103,0.0312 0.1322917,0 0.031181,-0.0312 -0.031181,-0.10111 0,-0.13229 0.031181,-0.0312 0.09285,0.0197 0.1322917,0 0.055779,-0.0279 0.076512,-0.1044 0.1322916,-0.13229 0.039442,-0.0197 0.09285,0.0197 0.1322917,0 0.5505661,-0.27528 -0.1414246,0.009 0.1322917,-0.26458 0.031181,-0.0312 0.1011102,0.0312 0.1322916,0 0.031181,-0.0312 0,-0.0882 0,-0.13229 0,-0.44346 0.00332,-0.38359 -0.1322916,-0.92605 z"
       id="path5246"
       inkscape:connector-curvature="0" />
    <path
       style="fill:none;stroke:#00ff00;stroke-width:1.16499996;stroke-linecap:butt;stroke-linejoin:miter;stroke-miterlimit:4;stroke-dasharray:none;stroke-opacity:1"
       d="m 15.814605,131.43132 c -0.251658,-0.0629 -0.516538,-0.28984 -0.661458,0 -0.01972,0.0394 0.03118,0.10111 0,0.1323 -0.06236,0.0624 -0.20222,-0.0624 -0.264583,0 -0.03118,0.0312 -0.03118,0.1011 0,0.13229 0.03118,0.0312 0.10111,-0.0312 0.132291,0 0.03118,0.0312 0,0.0882 0,0.13229 0,0.0707 0.01893,0.62359 0,0.66146 -0.02789,0.0558 -0.132291,0.0699 -0.132291,0.13229 0,0.0624 0.104402,0.0765 0.132291,0.13229 0.01972,0.0394 -0.03118,0.10111 0,0.13229 0.03118,0.0312 0.101111,-0.0312 0.132292,0 0.03118,0.0312 -0.03118,0.10111 0,0.13229 0.03118,0.0312 0.10111,0.0312 0.132292,0 0.03118,-0.0312 -0.03118,-0.10111 0,-0.13229 0.03118,-0.0312 0.09285,0.0197 0.132291,0 0.05578,-0.0279 0.07651,-0.1044 0.132292,-0.13229 0.03944,-0.0197 0.09285,0.0197 0.132292,0 0.550566,-0.27528 -0.141425,0.009 0.132291,-0.26458 0.03118,-0.0312 0.101111,0.0312 0.132292,0 0.03118,-0.0312 0,-0.0882 0,-0.13229 0,-0.44346 0.0033,-0.38359 -0.132292,-0.92605 z"
       id="path5246-6"
       inkscape:connector-curvature="0" />
    <path
       style="fill:none;stroke:#00ff00;stroke-width:1.16499996;stroke-linecap:butt;stroke-linejoin:miter;stroke-miterlimit:4;stroke-dasharray:none;stroke-opacity:1"
       d="m 20.841688,131.10058 c -0.251659,-0.0629 -0.516538,-0.28984 -0.661458,0 -0.01972,0.0394 0.03118,0.10111 0,0.1323 -0.06236,0.0624 -0.202221,-0.0624 -0.264584,0 -0.03118,0.0312 -0.03118,0.1011 0,0.13229 0.03118,0.0312 0.101111,-0.0312 0.132292,0 0.03118,0.0312 0,0.0882 0,0.13229 0,0.0707 0.01893,0.62359 0,0.66146 -0.02789,0.0558 -0.132292,0.0699 -0.132292,0.13229 0,0.0624 0.104403,0.0765 0.132292,0.13229 0.01972,0.0394 -0.03118,0.10111 0,0.13229 0.03118,0.0312 0.10111,-0.0312 0.132292,0 0.03118,0.0312 -0.03118,0.10111 0,0.13229 0.03118,0.0312 0.10111,0.0312 0.132291,0 0.03118,-0.0312 -0.03118,-0.10111 0,-0.13229 0.03118,-0.0312 0.09285,0.0197 0.132292,0 0.05578,-0.0279 0.07651,-0.1044 0.132292,-0.13229 0.03944,-0.0197 0.09285,0.0197 0.132291,0 0.550566,-0.27528 -0.141424,0.009 0.132292,-0.26458 0.03118,-0.0312 0.10111,0.0312 0.132292,0 0.03118,-0.0312 0,-0.0882 0,-0.13229 0,-0.44346 0.0033,-0.38359 -0.132292,-0.92605 z"
       id="path5246-0"
       inkscape:connector-curvature="0" />
    <path
       style="fill:none;stroke:#00ff00;stroke-width:1.16499996;stroke-linecap:butt;stroke-linejoin:miter;stroke-miterlimit:4;stroke-dasharray:none;stroke-opacity:1"
       d="m 30.565126,145.45423 c -0.251659,-0.0629 -0.516538,-0.28984 -0.661458,0 -0.01972,0.0394 0.03118,0.10111 0,0.1323 -0.06236,0.0624 -0.202221,-0.0624 -0.264584,0 -0.03118,0.0312 -0.03118,0.1011 0,0.13229 0.03118,0.0312 0.101111,-0.0312 0.132292,0 0.03118,0.0312 0,0.0882 0,0.13229 0,0.0707 0.01893,0.62359 0,0.66146 -0.02789,0.0558 -0.132292,0.0699 -0.132292,0.13229 0,0.0624 0.104403,0.0765 0.132292,0.13229 0.01972,0.0394 -0.03118,0.10111 0,0.13229 0.03118,0.0312 0.10111,-0.0312 0.132292,0 0.03118,0.0312 -0.03118,0.10111 0,0.13229 0.03118,0.0312 0.10111,0.0312 0.132291,0 0.03118,-0.0312 -0.03118,-0.10111 0,-0.13229 0.03118,-0.0312 0.09285,0.0197 0.132292,0 0.05578,-0.0279 0.07651,-0.1044 0.132292,-0.13229 0.03944,-0.0197 0.09285,0.0197 0.132291,0 0.550566,-0.27528 -0.141424,0.009 0.132292,-0.26458 0.03118,-0.0312 0.10111,0.0312 0.132292,0 0.03118,-0.0312 0,-0.0882 0,-0.13229 0,-0.44346 0.0033,-0.38359 -0.132292,-0.92605 z"
       id="path5246-62"
       inkscape:connector-curvature="0" />
    <path
       style="fill:none;stroke:#00ff00;stroke-width:1.16499996;stroke-linecap:butt;stroke-linejoin:miter;stroke-miterlimit:4;stroke-dasharray:none;stroke-opacity:1"
       d="m 37.841167,146.24798 c -0.251659,-0.0629 -0.516538,-0.28984 -0.661458,0 -0.01972,0.0394 0.03118,0.10111 0,0.1323 -0.06236,0.0624 -0.202221,-0.0624 -0.264584,0 -0.03118,0.0312 -0.03118,0.1011 0,0.13229 0.03118,0.0312 0.101111,-0.0312 0.132292,0 0.03118,0.0312 0,0.0882 0,0.13229 0,0.0707 0.01893,0.62359 0,0.66146 -0.02789,0.0558 -0.132292,0.0699 -0.132292,0.13229 0,0.0624 0.104403,0.0765 0.132292,0.13229 0.01972,0.0394 -0.03118,0.10111 0,0.13229 0.03118,0.0312 0.10111,-0.0312 0.132292,0 0.03118,0.0312 -0.03118,0.10111 0,0.13229 0.03118,0.0312 0.10111,0.0312 0.132291,0 0.03118,-0.0312 -0.03118,-0.10111 0,-0.13229 0.03118,-0.0312 0.09285,0.0197 0.132292,0 0.05578,-0.0279 0.07651,-0.1044 0.132292,-0.13229 0.03944,-0.0197 0.09285,0.0197 0.132291,0 0.550566,-0.27528 -0.141424,0.009 0.132292,-0.26458 0.03118,-0.0312 0.10111,0.0312 0.132292,0 0.03118,-0.0312 0,-0.0882 0,-0.13229 0,-0.44346 0.0033,-0.38359 -0.132292,-0.92605 z"
       id="path5246-61"
       inkscape:connector-curvature="0" />
    <path
       style="fill:none;stroke:#00ff00;stroke-width:1.16499996;stroke-linecap:butt;stroke-linejoin:miter;stroke-miterlimit:4;stroke-dasharray:none;stroke-opacity:1"
       d="m 41.677625,130.50527 c -0.251659,-0.0629 -0.516538,-0.28984 -0.661458,0 -0.01972,0.0394 0.03118,0.10111 0,0.1323 -0.06236,0.0624 -0.20222,-0.0624 -0.264583,0 -0.03118,0.0312 -0.03118,0.1011 0,0.13229 0.03118,0.0312 0.10111,-0.0312 0.132291,0 0.03118,0.0312 0,0.0882 0,0.13229 0,0.0707 0.01893,0.62359 0,0.66146 -0.02789,0.0558 -0.132291,0.0699 -0.132291,0.13229 0,0.0624 0.104402,0.0765 0.132291,0.13229 0.01972,0.0394 -0.03118,0.10111 0,0.13229 0.03118,0.0312 0.101111,-0.0312 0.132292,0 0.03118,0.0312 -0.03118,0.10111 0,0.13229 0.03118,0.0312 0.10111,0.0312 0.132292,0 0.03118,-0.0312 -0.03118,-0.10111 0,-0.13229 0.03118,-0.0312 0.09285,0.0197 0.132291,0 0.05578,-0.0279 0.07651,-0.1044 0.132292,-0.13229 0.03944,-0.0197 0.09285,0.0197 0.132292,0 0.550566,-0.27528 -0.141425,0.009 0.132291,-0.26458 0.03118,-0.0312 0.101111,0.0312 0.132292,0 0.03118,-0.0312 0,-0.0882 0,-0.13229 0,-0.44346 0.0033,-0.38359 -0.132292,-0.92605 z"
       id="path5246-8"
       inkscape:connector-curvature="0" />
    <path
       style="fill:none;stroke:#00ff00;stroke-width:1.16499996;stroke-linecap:butt;stroke-linejoin:miter;stroke-miterlimit:4;stroke-dasharray:none;stroke-opacity:1"
       d="m 42.603668,117.93756 c -0.251659,-0.0629 -0.516539,-0.28984 -0.661459,0 -0.01972,0.0394 0.03118,0.10111 0,0.1323 -0.06236,0.0624 -0.20222,-0.0624 -0.264583,0 -0.03118,0.0312 -0.03118,0.1011 0,0.13229 0.03118,0.0312 0.10111,-0.0312 0.132292,0 0.03118,0.0312 0,0.0882 0,0.13229 0,0.0707 0.01893,0.62359 0,0.66146 -0.02789,0.0558 -0.132292,0.0699 -0.132292,0.13229 0,0.0624 0.104402,0.0765 0.132292,0.13229 0.01972,0.0394 -0.03118,0.10111 0,0.13229 0.03118,0.0312 0.10111,-0.0312 0.132291,0 0.03118,0.0312 -0.03118,0.10111 0,0.13229 0.03118,0.0312 0.101111,0.0312 0.132292,0 0.03118,-0.0312 -0.03118,-0.10111 0,-0.13229 0.03118,-0.0312 0.09285,0.0197 0.132292,0 0.05578,-0.0279 0.07651,-0.1044 0.132291,-0.13229 0.03944,-0.0197 0.09285,0.0197 0.132292,0 0.550566,-0.27528 -0.141425,0.009 0.132292,-0.26458 0.03118,-0.0312 0.10111,0.0312 0.132291,0 0.03118,-0.0312 0,-0.0882 0,-0.13229 0,-0.44346 0.0033,-0.38359 -0.132291,-0.92605 z"
       id="path5246-7"
       inkscape:connector-curvature="0" />
    <path
       style="fill:none;stroke:#00ff00;stroke-width:1.16499996;stroke-linecap:butt;stroke-linejoin:miter;stroke-miterlimit:4;stroke-dasharray:none;stroke-opacity:1"
       d="m 45.910959,106.16361 c -0.251659,-0.0629 -0.516538,-0.28984 -0.661458,0 -0.01972,0.0394 0.03118,0.10111 0,0.1323 -0.06236,0.0624 -0.20222,-0.0624 -0.264583,0 -0.03118,0.0312 -0.03118,0.1011 0,0.13229 0.03118,0.0312 0.10111,-0.0312 0.132291,0 0.03118,0.0312 0,0.0882 0,0.13229 0,0.0707 0.01893,0.62359 0,0.66146 -0.02789,0.0558 -0.132291,0.0699 -0.132291,0.13229 0,0.0624 0.104402,0.0765 0.132291,0.13229 0.01972,0.0394 -0.03118,0.10111 0,0.13229 0.03118,0.0312 0.101111,-0.0312 0.132292,0 0.03118,0.0312 -0.03118,0.10111 0,0.13229 0.03118,0.0312 0.10111,0.0312 0.132292,0 0.03118,-0.0312 -0.03118,-0.10111 0,-0.13229 0.03118,-0.0312 0.09285,0.0197 0.132291,0 0.05578,-0.0279 0.07651,-0.1044 0.132292,-0.13229 0.03944,-0.0197 0.09285,0.0197 0.132292,0 0.550566,-0.27528 -0.141425,0.009 0.132291,-0.26458 0.03118,-0.0312 0.101111,0.0312 0.132292,0 0.03118,-0.0312 0,-0.0882 0,-0.13229 0,-0.44346 0.0033,-0.38359 -0.132292,-0.92605 z"
       id="path5246-9"
       inkscape:connector-curvature="0" />
    <path
       style="fill:none;stroke:#00ff00;stroke-width:1.16499996;stroke-linecap:butt;stroke-linejoin:miter;stroke-miterlimit:4;stroke-dasharray:none;stroke-opacity:1"
       d="m 69.591167,106.42819 c -0.251659,-0.0629 -0.516538,-0.28984 -0.661458,0 -0.01972,0.0394 0.03118,0.10111 0,0.1323 -0.06236,0.0624 -0.202221,-0.0624 -0.264584,0 -0.03118,0.0312 -0.03118,0.1011 0,0.13229 0.03118,0.0312 0.101111,-0.0312 0.132292,0 0.03118,0.0312 0,0.0882 0,0.13229 0,0.0707 0.01893,0.62359 0,0.66146 -0.02789,0.0558 -0.132292,0.0699 -0.132292,0.13229 0,0.0624 0.104403,0.0765 0.132292,0.13229 0.01972,0.0394 -0.03118,0.10111 0,0.13229 0.03118,0.0312 0.10111,-0.0312 0.132292,0 0.03118,0.0312 -0.03118,0.10111 0,0.13229 0.03118,0.0312 0.10111,0.0312 0.132291,0 0.03118,-0.0312 -0.03118,-0.10111 0,-0.13229 0.03118,-0.0312 0.09285,0.0197 0.132292,0 0.05578,-0.0279 0.07651,-0.1044 0.132292,-0.13229 0.03944,-0.0197 0.09285,0.0197 0.132291,0 0.550566,-0.27528 -0.141424,0.009 0.132292,-0.26458 0.03118,-0.0312 0.10111,0.0312 0.132292,0 0.03118,-0.0312 0,-0.0882 0,-0.13229 0,-0.44346 0.0033,-0.38359 -0.132292,-0.92605 z"
       id="path5246-2"
       inkscape:connector-curvature="0" />
    <path
       style="fill:none;stroke:#00ff00;stroke-width:1.16499996;stroke-linecap:butt;stroke-linejoin:miter;stroke-miterlimit:4;stroke-dasharray:none;stroke-opacity:1"
       d="m 74.022938,117.54069 c -0.251659,-0.0629 -0.516538,-0.28984 -0.661458,0 -0.01972,0.0394 0.03118,0.10111 0,0.1323 -0.06236,0.0624 -0.202221,-0.0624 -0.264584,0 -0.03118,0.0312 -0.03118,0.1011 0,0.13229 0.03118,0.0312 0.101111,-0.0312 0.132292,0 0.03118,0.0312 0,0.0882 0,0.13229 0,0.0707 0.01893,0.62359 0,0.66146 -0.02789,0.0558 -0.132292,0.0699 -0.132292,0.13229 0,0.0624 0.104403,0.0765 0.132292,0.13229 0.01972,0.0394 -0.03118,0.10111 0,0.13229 0.03118,0.0312 0.10111,-0.0312 0.132292,0 0.03118,0.0312 -0.03118,0.10111 0,0.13229 0.03118,0.0312 0.10111,0.0312 0.132291,0 0.03118,-0.0312 -0.03118,-0.10111 0,-0.13229 0.03118,-0.0312 0.09285,0.0197 0.132292,0 0.05578,-0.0279 0.07651,-0.1044 0.132292,-0.13229 0.03944,-0.0197 0.09285,0.0197 0.132291,0 0.550566,-0.27528 -0.141424,0.009 0.132292,-0.26458 0.03118,-0.0312 0.10111,0.0312 0.132292,0 0.03118,-0.0312 0,-0.0882 0,-0.13229 0,-0.44346 0.0033,-0.38359 -0.132292,-0.92605 z"
       id="path5246-02"
       inkscape:connector-curvature="0" />
    <path
       style="fill:none;stroke:#00ff00;stroke-width:1.16499996;stroke-linecap:butt;stroke-linejoin:miter;stroke-miterlimit:4;stroke-dasharray:none;stroke-opacity:1"
       d="m 79.777626,117.4084 c -0.251659,-0.0629 -0.516539,-0.28984 -0.661459,0 -0.01972,0.0394 0.03118,0.10111 0,0.1323 -0.06236,0.0624 -0.20222,-0.0624 -0.264583,0 -0.03118,0.0312 -0.03118,0.1011 0,0.13229 0.03118,0.0312 0.10111,-0.0312 0.132292,0 0.03118,0.0312 0,0.0882 0,0.13229 0,0.0707 0.01893,0.62359 0,0.66146 -0.02789,0.0558 -0.132292,0.0699 -0.132292,0.13229 0,0.0624 0.104402,0.0765 0.132292,0.13229 0.01972,0.0394 -0.03118,0.10111 0,0.13229 0.03118,0.0312 0.10111,-0.0312 0.132291,0 0.03118,0.0312 -0.03118,0.10111 0,0.13229 0.03118,0.0312 0.101111,0.0312 0.132292,0 0.03118,-0.0312 -0.03118,-0.10111 0,-0.13229 0.03118,-0.0312 0.09285,0.0197 0.132292,0 0.05578,-0.0279 0.07651,-0.1044 0.132291,-0.13229 0.03944,-0.0197 0.09285,0.0197 0.132292,0 0.550566,-0.27528 -0.141425,0.009 0.132292,-0.26458 0.03118,-0.0312 0.10111,0.0312 0.132291,0 0.03118,-0.0312 0,-0.0882 0,-0.13229 0,-0.44346 0.0033,-0.38359 -0.132291,-0.92605 z"
       id="path5246-3"
       inkscape:connector-curvature="0" />
    <path
       style="fill:none;stroke:#00ff00;stroke-width:1.16499996;stroke-linecap:butt;stroke-linejoin:miter;stroke-miterlimit:4;stroke-dasharray:none;stroke-opacity:1"
       d="m 85.201584,106.56048 c -0.251659,-0.0629 -0.516538,-0.28984 -0.661458,0 -0.01972,0.0394 0.03118,0.10111 0,0.1323 -0.06236,0.0624 -0.202221,-0.0624 -0.264584,0 -0.03118,0.0312 -0.03118,0.1011 0,0.13229 0.03118,0.0312 0.101111,-0.0312 0.132292,0 0.03118,0.0312 0,0.0882 0,0.13229 0,0.0707 0.01893,0.62359 0,0.66146 -0.02789,0.0558 -0.132292,0.0699 -0.132292,0.13229 0,0.0624 0.104403,0.0765 0.132292,0.13229 0.01972,0.0394 -0.03118,0.10111 0,0.13229 0.03118,0.0312 0.10111,-0.0312 0.132292,0 0.03118,0.0312 -0.03118,0.10111 0,0.13229 0.03118,0.0312 0.10111,0.0312 0.132291,0 0.03118,-0.0312 -0.03118,-0.10111 0,-0.13229 0.03118,-0.0312 0.09285,0.0197 0.132292,0 0.05578,-0.0279 0.07651,-0.1044 0.132292,-0.13229 0.03944,-0.0197 0.09285,0.0197 0.132291,0 0.550566,-0.27528 -0.141424,0.009 0.132292,-0.26458 0.03118,-0.0312 0.10111,0.0312 0.132292,0 0.03118,-0.0312 0,-0.0882 0,-0.13229 0,-0.44346 0.0033,-0.38359 -0.132292,-0.92605 z"
       id="path5246-75"
       inkscape:connector-curvature="0" />
    <path
       style="fill:none;stroke:#00ff00;stroke-width:1.16499996;stroke-linecap:butt;stroke-linejoin:miter;stroke-miterlimit:4;stroke-dasharray:none;stroke-opacity:1"
       d="m 102.79638,106.42819 c -0.25166,-0.0629 -0.51654,-0.28984 -0.66146,0 -0.0197,0.0394 0.0312,0.10111 0,0.1323 -0.0624,0.0624 -0.20222,-0.0624 -0.26459,0 -0.0312,0.0312 -0.0312,0.1011 0,0.13229 0.0312,0.0312 0.10111,-0.0312 0.1323,0 0.0312,0.0312 0,0.0882 0,0.13229 0,0.0707 0.0189,0.62359 0,0.66146 -0.0279,0.0558 -0.1323,0.0699 -0.1323,0.13229 0,0.0624 0.10441,0.0765 0.1323,0.13229 0.0197,0.0394 -0.0312,0.10111 0,0.13229 0.0312,0.0312 0.10111,-0.0312 0.13229,0 0.0312,0.0312 -0.0312,0.10111 0,0.13229 0.0312,0.0312 0.10111,0.0312 0.13229,0 0.0312,-0.0312 -0.0312,-0.10111 0,-0.13229 0.0312,-0.0312 0.0928,0.0197 0.13229,0 0.0558,-0.0279 0.0765,-0.1044 0.13229,-0.13229 0.0394,-0.0197 0.0928,0.0197 0.13229,0 0.55057,-0.27528 -0.14142,0.009 0.1323,-0.26458 0.0312,-0.0312 0.10111,0.0312 0.13229,0 0.0312,-0.0312 0,-0.0882 0,-0.13229 0,-0.44346 0.003,-0.38359 -0.13229,-0.92605 z"
       id="path5246-92"
       inkscape:connector-curvature="0" />
    <path
       style="fill:none;stroke:#00ff00;stroke-width:1.16499996;stroke-linecap:butt;stroke-linejoin:miter;stroke-miterlimit:4;stroke-dasharray:none;stroke-opacity:1"
       d="m 106.23596,115.95318 c -0.25165,-0.0629 -0.51653,-0.28984 -0.66145,0 -0.0197,0.0394 0.0312,0.10111 0,0.1323 -0.0624,0.0624 -0.20222,-0.0624 -0.26459,0 -0.0312,0.0312 -0.0312,0.1011 0,0.13229 0.0312,0.0312 0.10111,-0.0312 0.13229,0 0.0312,0.0312 0,0.0882 0,0.13229 0,0.0707 0.0189,0.62359 0,0.66146 -0.0279,0.0558 -0.13229,0.0699 -0.13229,0.13229 0,0.0624 0.1044,0.0765 0.13229,0.13229 0.0197,0.0394 -0.0312,0.10111 0,0.13229 0.0312,0.0312 0.10111,-0.0312 0.1323,0 0.0312,0.0312 -0.0312,0.10111 0,0.13229 0.0312,0.0312 0.10111,0.0312 0.13229,0 0.0312,-0.0312 -0.0312,-0.10111 0,-0.13229 0.0312,-0.0312 0.0929,0.0197 0.13228,0 0.0558,-0.0279 0.0765,-0.1044 0.13229,-0.13229 0.0394,-0.0197 0.0928,0.0197 0.13229,0 0.55057,-0.27528 -0.14142,0.009 0.13229,-0.26458 0.0312,-0.0312 0.10111,0.0312 0.1323,0 0.0312,-0.0312 0,-0.0882 0,-0.13229 0,-0.44346 0.003,-0.38359 -0.13229,-0.92605 z"
       id="path5246-28"
       inkscape:connector-curvature="0" />
    <path
       style="fill:none;stroke:#00ff00;stroke-width:1.16499996;stroke-linecap:butt;stroke-linejoin:miter;stroke-miterlimit:4;stroke-dasharray:none;stroke-opacity:1"
       d="m 109.27867,128.78548 c -0.25166,-0.0629 -0.51655,-0.28984 -0.66146,0 -0.0197,0.0394 0.0312,0.10111 0,0.1323 -0.0624,0.0624 -0.20222,-0.0624 -0.26458,0 -0.0312,0.0312 -0.0312,0.1011 0,0.13229 0.0312,0.0312 0.10111,-0.0312 0.13229,0 0.0312,0.0312 0,0.0882 0,0.13229 0,0.0707 0.0189,0.62359 0,0.66146 -0.0279,0.0558 -0.13229,0.0699 -0.13229,0.13229 0,0.0624 0.1044,0.0765 0.13229,0.13229 0.0197,0.0394 -0.0312,0.10111 0,0.13229 0.0312,0.0312 0.10111,-0.0312 0.13229,0 0.0312,0.0312 -0.0312,0.10111 0,0.13229 0.0312,0.0312 0.10111,0.0312 0.1323,0 0.0312,-0.0312 -0.0312,-0.10111 0,-0.13229 0.0312,-0.0312 0.0929,0.0197 0.13228,0 0.0558,-0.0279 0.0765,-0.1044 0.13229,-0.13229 0.0394,-0.0197 0.0928,0.0197 0.13229,0 0.55057,-0.27528 -0.14142,0.009 0.13229,-0.26458 0.0312,-0.0312 0.10111,0.0312 0.13229,0 0.0312,-0.0312 0,-0.0882 0,-0.13229 0,-0.44346 0.003,-0.38359 -0.13228,-0.92605 z"
       id="path5246-97"
       inkscape:connector-curvature="0" />
    <path
       style="fill:none;stroke:#00ff00;stroke-width:1.16499996;stroke-linecap:butt;stroke-linejoin:miter;stroke-miterlimit:4;stroke-dasharray:none;stroke-opacity:1"
       d="m 116.29012,144.52819 c -0.25165,-0.0629 -0.51653,-0.28984 -0.66145,0 -0.0197,0.0394 0.0312,0.10111 0,0.1323 -0.0624,0.0624 -0.20222,-0.0624 -0.26459,0 -0.0312,0.0312 -0.0312,0.1011 0,0.13229 0.0312,0.0312 0.10111,-0.0312 0.13229,0 0.0312,0.0312 0,0.0882 0,0.13229 0,0.0707 0.0189,0.62359 0,0.66146 -0.0279,0.0558 -0.13229,0.0699 -0.13229,0.13229 0,0.0624 0.1044,0.0765 0.13229,0.13229 0.0197,0.0394 -0.0312,0.10111 0,0.13229 0.0312,0.0312 0.10111,-0.0312 0.1323,0 0.0312,0.0312 -0.0312,0.10111 0,0.13229 0.0312,0.0312 0.10111,0.0312 0.13229,0 0.0312,-0.0312 -0.0312,-0.10111 0,-0.13229 0.0312,-0.0312 0.0928,0.0197 0.13229,0 0.0558,-0.0279 0.0765,-0.1044 0.13229,-0.13229 0.0394,-0.0197 0.0928,0.0197 0.13229,0 0.55057,-0.27528 -0.14142,0.009 0.13229,-0.26458 0.0312,-0.0312 0.10111,0.0312 0.1323,0 0.0312,-0.0312 0,-0.0882 0,-0.13229 0,-0.44346 0.003,-0.38359 -0.1323,-0.92605 z"
       id="path5246-36"
       inkscape:connector-curvature="0" />
    <path
       style="fill:none;stroke:#7b7b7b;stroke-width:1;stroke-linecap:butt;stroke-linejoin:miter;stroke-opacity:1;stroke-miterlimit:4;stroke-dasharray:none"
       d="m 8.4134947,164.05302 c 0.220486,-0.0441 0.440972,-0.0882 0.661458,-0.13229 0.08819,-0.0441 0.168923,-0.10838 0.264583,-0.13229 0.08556,-0.0214 0.178102,0.0173 0.264584,0 0.136739,-0.0274 0.264583,-0.0882 0.3968753,-0.13229 0.395216,-0.13174 0.790101,-0.28244 1.190625,-0.39688 1.645596,-0.47017 3.345875,-0.75266 5.027083,-1.05833 0.614228,-0.11168 0.928374,-0.21388 1.5875,-0.26458 0.263804,-0.0203 0.530081,0.022 0.79375,0 0.267307,-0.0223 0.526307,-0.11172 0.79375,-0.13229 0.307771,-0.0237 0.618146,0.022 0.926042,0 0.622044,-0.0444 1.230039,-0.22016 1.852083,-0.26459 0.307896,-0.022 0.618146,0.022 0.926042,0 0.622044,-0.0444 1.230291,-0.21675 1.852083,-0.26458 0.263804,-0.0203 0.529946,0.0203 0.79375,0 0.621792,-0.0478 1.230039,-0.22015 1.852083,-0.26458 0.877468,-0.0627 1.768366,0.0627 2.645834,0 0.311022,-0.0222 0.615019,-0.11008 0.926041,-0.1323 0.307897,-0.022 0.617361,0 0.926042,0 0.617361,0 1.234723,0 1.852084,0 0.264583,0 0.529947,0.0203 0.79375,0 0.310895,-0.0239 0.615144,-0.10837 0.92604,-0.13229 0.263803,-0.0203 0.52917,0 0.79375,0 0.617361,0 1.234723,0 1.852084,0 0.308681,0 0.618273,0.0237 0.926041,0 0.267444,-0.0206 0.526307,-0.11172 0.79375,-0.13229 0.307772,-0.0237 0.618146,0.022 0.926045,0 0.311023,-0.0222 0.615143,-0.10838 0.926039,-0.13229 0.263803,-0.0203 0.529166,0 0.79375,0 0.308684,0 0.61736,0 0.926041,0 0.837848,0 1.675694,0 2.513545,0 0.573262,0 1.146524,0 1.719789,0 0.264583,0 0.529947,-0.0203 0.79375,0 0.310896,0.0239 0.615145,0.10838 0.926041,0.13229 0.263806,0.0203 0.529167,0 0.79375,0 0.264584,0 0.529167,0 0.79375,0 0.308682,0 0.618271,-0.0237 0.926042,0 0.267444,0.0206 0.526307,0.11172 0.79375,0.13229 0.615543,0.0473 1.236541,-0.0474 1.852083,0 0.267444,0.0206 0.526307,0.11172 0.79375,0.13229 0.307772,0.0237 0.618146,-0.022 0.926042,0 0.311023,0.0222 0.615019,0.11008 0.926042,0.1323 0.307895,0.022 0.618048,-0.0205 0.926041,0 0.354735,0.0237 0.703599,0.10864 1.058334,0.13229 0.659995,0.044 1.324205,-0.0413 1.984375,0 0.35483,0.0222 0.70281,0.13229 1.058333,0.13229 0.355526,0 0.703424,-0.11142 1.058336,-0.13229 0.396187,-0.0233 0.79375,0 1.190625,0 0.352774,0 0.705554,0 1.058331,0 0.396875,0 0.794361,0.022 1.190625,0 0.398703,-0.0221 0.791921,-0.11015 1.190625,-0.13229 0.396264,-0.022 0.794361,0.022 1.190625,0 0.398703,-0.0222 0.791924,-0.11015 1.190625,-0.1323 0.396264,-0.022 0.79375,0 1.190625,0 0.837848,0 1.675693,0 2.513541,0 2.954515,0 5.909027,0 8.863542,0 0.926042,0 1.852083,0 2.778125,0 0.440973,0 0.882494,0.022 1.322917,0 0.442619,-0.0221 0.881943,-0.0882 1.322916,-0.13229 0.485069,0 0.970688,0.0231 1.455209,0 0.442669,-0.0211 0.880298,-0.11016 1.322916,-0.13229 0.440423,-0.022 0.881944,0 1.322917,0 0.485069,0 0.97014,0 1.455208,0 0.440973,0 0.882494,0.022 1.322917,0 0.442619,-0.0221 0.880293,-0.11016 1.322923,-0.13229 0.44042,-0.022 0.88194,0 1.32291,0 0.44097,0 0.88194,0 1.32292,0 0.44097,0 0.882438,0.021 1.322908,0 0.48652,-0.0232 0.96869,-0.10913 1.45521,-0.13229 0.925,-0.044 1.85313,0.044 2.77813,0 0.92918,-0.0443 1.84894,-0.22034 2.77812,-0.26459 0.44047,-0.021 0.88245,0.021 1.32293,0 0.97303,-0.0463 1.93738,-0.21824 2.91041,-0.26458 0.44048,-0.021 0.88245,0.021 1.32292,0 0.48652,-0.0232 0.97033,-0.0861 1.45521,-0.13229 0.88235,-0.084 1.76348,-0.18055 2.64583,-0.26458 0.48488,-0.0462 0.96869,-0.10913 1.45521,-0.1323 0.44047,-0.021 0.88249,0.022 1.32292,0 0.44261,-0.0221 0.88194,-0.0882 1.32291,-0.13229 0.88195,-0.0882 1.76389,-0.17639 2.64584,-0.26458 0.44097,-0.0441 0.88029,-0.11016 1.32291,-0.13229 0.44042,-0.022 0.88195,0 1.32292,0 0.44097,-0.0441 0.88036,-0.109 1.32292,-0.13229 0.79265,-0.0417 1.58872,0.044 2.38125,0 0.3987,-0.0221 0.79192,-0.11015 1.19062,-0.1323 0.39626,-0.022 0.79375,0 1.19063,0 0.39687,0 0.79375,0 1.19062,0 0.79375,0 1.5875,0 2.38125,0 0.39688,0 0.79436,0.022 1.19063,0 0.3987,-0.0221 0.79199,-0.10884 1.19062,-0.13229 0.74836,-0.044 1.5006,0.044 2.24896,0 0.35491,-0.0209 0.7035,-0.11011 1.05833,-0.13229 0.35209,-0.022 0.70617,0.0207 1.05833,0 0.39863,-0.0234 0.792,-0.10884 1.19063,-0.13229 0.35217,-0.0207 0.70556,0 1.05833,0 0.35278,0 0.70556,0 1.05834,0 0.35277,0 0.70624,0.022 1.05833,0 0.35483,-0.0222 0.7035,-0.11012 1.05833,-0.13229 0.35209,-0.022 0.70556,0 1.05834,0 0.97014,0 1.94027,0 2.91041,0 2.60174,0 5.20348,0 7.80521,0 1.6316,0 3.26319,0 4.89479,0 0.48507,0 0.97014,0 1.45521,0 0.17639,0 0.35278,0 0.52917,0 0.0882,0 0.1781,0.0173 0.26458,0 0.13674,-0.0274 0.26014,-0.10495 0.39688,-0.13229 0.0865,-0.0173 0.17639,0 0.26458,0 0.17639,0 0.35278,0 0.52917,0 0.61736,0 1.23472,0 1.85208,0 0.20064,0 0.88072,0.0296 1.05833,0 0.13755,-0.0229 0.25933,-0.10937 0.39688,-0.1323 0.30448,-0.0507 0.62046,0.0437 0.92604,0 0.13805,-0.0197 0.26279,-0.094 0.39687,-0.13229 0.17483,-0.0499 0.34918,-0.10658 0.52917,-0.13229 0.26193,-0.0374 0.53431,0.0519 0.79375,0 0.0967,-0.0193 0.16892,-0.10838 0.26458,-0.13229 0.11993,-0.03 0.50778,0 0.66146,0 0.0441,0 0.10111,0.0312 0.13229,0 0.0312,-0.0312 -0.0394,-0.11257 0,-0.13229 0.0438,-0.0219 0.55965,0 0.66146,0"
       id="path5240-1"
       inkscape:connector-curvature="0" />
    <path
       style="fill:none;stroke:#0000f6;stroke-width:0.26458332px;stroke-linecap:butt;stroke-linejoin:miter;stroke-opacity:1"
       d="m -5.7417139,96.319695 c 0.2204861,-0.0441 0.4409722,-0.0882 0.6614583,-0.13229 0.088194,-0.0441 0.168923,-0.10838 0.2645833,-0.13229 0.085561,-0.0214 0.1781017,0.0173 0.2645834,0 0.1367395,-0.0274 0.2645833,-0.0882 0.396875,-0.13229 0.3952165,-0.13174 0.7901013,-0.28244 1.190625,-0.396882 1.6455959,-0.47017 3.3458759,-0.75266 5.0270829,-1.05833 0.614228,-0.11168 0.928374,-0.21388 1.5875,-0.26458 0.263804,-0.0203 0.530081,0.022 0.79375,0 0.267307,-0.0223 0.526307,-0.11172 0.79375,-0.13229 0.307771,-0.0237 0.618146,0.022 0.926042,0 0.622044,-0.0444 1.230039,-0.22016 1.852083,-0.26459 0.307896,-0.022 0.618146,0.022 0.926042,0 0.622044,-0.0444 1.230291,-0.21675 1.852083,-0.26458 0.263804,-0.0203 0.529946,0.0203 0.79375,0 0.621792,-0.0478 1.230039,-0.22015 1.852083,-0.26458 0.877468,-0.0627 1.768366,0.0627 2.645834,0 0.311022,-0.0222 0.615019,-0.11008 0.926041,-0.1323 0.307897,-0.022 0.617361,0 0.926042,0 0.617361,0 1.234723,0 1.852084,0 0.264583,0 0.529947,0.0203 0.79375,0 0.310895,-0.0239 0.615144,-0.10837 0.92604,-0.13229 0.263803,-0.0203 0.52917,0 0.79375,0 0.617361,0 1.234723,0 1.852084,0 0.308681,0 0.618273,0.0237 0.926041,0 0.267444,-0.0206 0.526307,-0.11172 0.79375,-0.13229 0.307772,-0.0237 0.618146,0.022 0.926045,0 0.311023,-0.0222 0.615143,-0.10838 0.926039,-0.13229 0.263803,-0.0203 0.529166,0 0.79375,0 0.308684,0 0.61736,0 0.926041,0 0.837848,0 1.675694,0 2.513545,0 0.573262,0 1.146524,0 1.719789,0 0.264583,0 0.529947,-0.0203 0.79375,0 0.310896,0.0239 0.615145,0.10838 0.926041,0.13229 0.263806,0.0203 0.529167,0 0.79375,0 0.264584,0 0.529167,0 0.79375,0 0.308682,0 0.618271,-0.0237 0.926042,0 0.267444,0.0206 0.526307,0.11172 0.79375,0.13229 0.615543,0.0473 1.236541,-0.0474 1.852083,0 0.267444,0.0206 0.526307,0.11172 0.79375,0.13229 0.307772,0.0237 0.618146,-0.022 0.926042,0 0.311023,0.0222 0.615019,0.11008 0.926042,0.1323 0.307895,0.022 0.618048,-0.0205 0.926041,0 0.354735,0.0237 0.703599,0.10864 1.058334,0.13229 0.659995,0.044 1.324205,-0.0413 1.984375,0 0.35483,0.0222 0.70281,0.13229 1.058333,0.13229 0.355526,0 0.703424,-0.11142 1.058336,-0.13229 0.396187,-0.0233 0.79375,0 1.190625,0 0.352774,0 0.705554,0 1.058331,0 0.396875,0 0.794361,0.022 1.190625,0 0.398703,-0.0221 0.791921,-0.11015 1.190625,-0.13229 0.396264,-0.022 0.794361,0.022 1.190625,0 0.398703,-0.0222 0.791924,-0.11015 1.190625,-0.1323 0.396264,-0.022 0.79375,0 1.190625,0 0.837848,0 1.675693,0 2.513541,0 2.954515,0 5.909027,0 8.863542,0 0.926042,0 1.852083,0 2.778125,0 0.440973,0 0.882494,0.022 1.322917,0 0.442619,-0.0221 0.881943,-0.0882 1.322916,-0.13229 0.485069,0 0.970688,0.0231 1.455209,0 0.442669,-0.0211 0.880298,-0.11016 1.322916,-0.13229 0.440423,-0.022 0.881944,0 1.322917,0 0.485069,0 0.97014,0 1.455208,0 0.440973,0 0.882494,0.022 1.322917,0 0.442619,-0.0221 0.880298,-0.11016 1.322919,-0.13229 0.44042,-0.022 0.881941,0 1.322914,0 0.440973,0 0.881944,0 1.322917,0 0.440973,0 0.882444,0.021 1.322917,0 0.486518,-0.0232 0.96869,-0.10913 1.455208,-0.13229 0.924994,-0.044 1.853131,0.044 2.77813,0 0.92918,-0.0443 1.84894,-0.22034 2.77812,-0.26459 0.44047,-0.021 0.88245,0.021 1.32293,0 0.97303,-0.0463 1.93738,-0.21824 2.91041,-0.26458 0.44048,-0.021 0.88245,0.021 1.32292,0 0.48652,-0.0232 0.970335,-0.0861 1.455215,-0.13229 0.88235,-0.084 1.76348,-0.18055 2.64583,-0.26458 0.48488,-0.0462 0.96869,-0.10913 1.45521,-0.1323 0.44047,-0.021 0.88249,0.022 1.32292,0 0.44261,-0.0221 0.88194,-0.0882 1.32291,-0.13229 0.88195,-0.0882 1.76389,-0.17639 2.64584,-0.26458 0.44097,-0.0441 0.88029,-0.11016 1.32291,-0.13229 0.44042,-0.022 0.88195,0 1.32292,0 0.44097,-0.0441 0.88036,-0.109 1.32292,-0.13229 0.79265,-0.0417 1.58872,0.044 2.38125,0 0.3987,-0.0221 0.79192,-0.11015 1.19062,-0.1323 0.39626,-0.022 0.79375,0 1.19063,0 0.39687,0 0.79375,0 1.19062,0 0.79375,0 1.5875,0 2.38125,0 0.39688,0 0.79436,0.022 1.19063,0 0.39869,-0.0221 0.79199,-0.10884 1.19062,-0.13229 0.74835,-0.044 1.50059,0.044 2.24896,0 0.35491,-0.0209 0.7035,-0.11011 1.05833,-0.13229 0.35209,-0.022 0.70616,0.0207 1.05833,0 0.39863,-0.0234 0.792,-0.10884 1.19063,-0.13229 0.35217,-0.0207 0.70556,0 1.05833,0 0.35278,0 0.70556,0 1.05834,0 0.35277,0 0.70624,0.022 1.05833,0 0.35483,-0.0222 0.7035,-0.11012 1.05833,-0.13229 0.35209,-0.022 0.70556,0 1.05834,0 0.97014,0 1.94027,0 2.91041,0 2.60174,0 5.20348,0 7.80521,0 1.6316,0 3.26319,0 4.89479,0 0.48507,0 0.97014,0 1.45521,0 0.17639,0 0.35278,0 0.52917,0 0.0882,0 0.1781,0.0173 0.26458,0 0.13674,-0.0274 0.26014,-0.10495 0.39688,-0.13229 0.0865,-0.0173 0.17639,0 0.26458,0 0.17639,0 0.35278,0 0.52917,0 0.61736,0 1.23472,0 1.85208,0 0.20064,0 0.88072,0.0296 1.05833,0 0.13755,-0.0229 0.25933,-0.10937 0.39688,-0.1323 0.30448,-0.0507 0.62046,0.0437 0.92604,0 0.13805,-0.0197 0.26279,-0.094 0.39687,-0.13229 0.17483,-0.0499 0.34918,-0.10658 0.52917,-0.13229 0.26193,-0.0374 0.53431,0.0519 0.79375,0 0.0967,-0.0193 0.16892,-0.10838 0.26458,-0.13229 0.11993,-0.03 0.50778,0 0.66146,0 0.0441,0 0.10111,0.0312 0.13229,0 0.0312,-0.0312 -0.0394,-0.11257 0,-0.13229 0.0438,-0.0219 0.55965,0 0.66146,0"
       id="path5240-2"
       inkscape:connector-curvature="0" />
    <path
       style="fill:none;stroke:#00ff00;stroke-width:1.16499996;stroke-linecap:butt;stroke-linejoin:miter;stroke-miterlimit:4;stroke-dasharray:none;stroke-opacity:1"
       d="m 58.875563,92.272979 c -0.25166,-0.0629 -0.51654,-0.28984 -0.66146,0 -0.01971,0.0394 0.0312,0.10111 0,0.1323 -0.0624,0.0624 -0.202225,-0.0624 -0.264595,0 -0.0312,0.0312 -0.0312,0.1011 0,0.13229 0.0312,0.0312 0.10111,-0.0312 0.1323,0 0.0312,0.0312 0,0.0882 0,0.13229 0,0.0707 0.0189,0.62359 0,0.66146 -0.0279,0.0558 -0.1323,0.0699 -0.1323,0.13229 0,0.0624 0.10441,0.0765 0.1323,0.13229 0.0197,0.0394 -0.0312,0.10111 0,0.13229 0.0312,0.0312 0.10111,-0.0312 0.132295,0 0.0312,0.0312 -0.0312,0.10111 0,0.13229 0.0312,0.0312 0.10111,0.0312 0.13229,0 0.0312,-0.0312 -0.0312,-0.10111 0,-0.13229 0.0312,-0.0312 0.0928,0.0197 0.13229,0 0.0558,-0.0279 0.0765,-0.1044 0.13229,-0.13229 0.0394,-0.0197 0.0928,0.0197 0.13229,0 0.55057,-0.27528 -0.14142,0.009 0.1323,-0.26458 0.0312,-0.0312 0.10111,0.0312 0.13229,0 0.0312,-0.0312 0,-0.0882 0,-0.13229 0,-0.44346 0.003,-0.38359 -0.13229,-0.92605 z"
       id="path5246-92-9"
       inkscape:connector-curvature="0" />
    <path
       style="fill:none;stroke:#00ff00;stroke-width:1.16499996;stroke-linecap:butt;stroke-linejoin:miter;stroke-miterlimit:4;stroke-dasharray:none;stroke-opacity:1"
       d="m 93.469829,92.206834 c -0.25166,-0.0629 -0.51654,-0.28984 -0.66146,0 -0.0197,0.0394 0.0312,0.10111 0,0.1323 -0.0624,0.0624 -0.20222,-0.0624 -0.26459,0 -0.0312,0.0312 -0.0312,0.1011 0,0.13229 0.0312,0.0312 0.10111,-0.0312 0.1323,0 0.0312,0.0312 0,0.0882 0,0.13229 0,0.0707 0.0189,0.62359 0,0.66146 -0.0279,0.0558 -0.1323,0.0699 -0.1323,0.13229 0,0.0624 0.10441,0.0765 0.1323,0.13229 0.0197,0.0394 -0.0312,0.10111 0,0.13229 0.0312,0.0312 0.10111,-0.0312 0.13229,0 0.0312,0.0312 -0.0312,0.10111 0,0.13229 0.0312,0.0312 0.10111,0.0312 0.13229,0 0.0312,-0.0312 -0.0312,-0.10111 0,-0.13229 0.0312,-0.0312 0.0928,0.0197 0.13229,0 0.0558,-0.0279 0.0765,-0.1044 0.13229,-0.13229 0.0394,-0.0197 0.0928,0.0197 0.13229,0 0.55057,-0.27528 -0.14142,0.009 0.1323,-0.26458 0.0312,-0.0312 0.10111,0.0312 0.13229,0 0.0312,-0.0312 0,-0.0882 0,-0.13229 0,-0.44346 0.003,-0.38359 -0.13229,-0.92605 z"
       id="path5246-92-3"
       inkscape:connector-curvature="0" />
    <path
       style="fill:none;stroke:#00ff00;stroke-width:1.16499996;stroke-linecap:butt;stroke-linejoin:miter;stroke-miterlimit:4;stroke-dasharray:none;stroke-opacity:1"
       d="m 136.39847,157.62506 c -0.25166,-0.0629 -0.51654,-0.28984 -0.66146,0 -0.0197,0.0394 0.0312,0.10111 0,0.1323 -0.0624,0.0624 -0.20222,-0.0624 -0.26459,0 -0.0312,0.0312 -0.0312,0.1011 0,0.13229 0.0312,0.0312 0.10111,-0.0312 0.1323,0 0.0312,0.0312 0,0.0882 0,0.13229 0,0.0707 0.0189,0.62359 0,0.66146 -0.0279,0.0558 -0.1323,0.0699 -0.1323,0.13229 0,0.0624 0.10441,0.0765 0.1323,0.13229 0.0197,0.0394 -0.0312,0.10111 0,0.13229 0.0312,0.0312 0.10111,-0.0312 0.13229,0 0.0312,0.0312 -0.0312,0.10111 0,0.13229 0.0312,0.0312 0.10111,0.0312 0.13229,0 0.0312,-0.0312 -0.0312,-0.10111 0,-0.13229 0.0312,-0.0312 0.0928,0.0197 0.13229,0 0.0558,-0.0279 0.0765,-0.1044 0.13229,-0.13229 0.0394,-0.0197 0.0928,0.0197 0.13229,0 0.55057,-0.27528 -0.14142,0.009 0.1323,-0.26458 0.0312,-0.0312 0.10111,0.0312 0.13229,0 0.0312,-0.0312 0,-0.0882 0,-0.13229 0,-0.44346 0.003,-0.38359 -0.13229,-0.92605 z"
       id="path5246-92-1"
       inkscape:connector-curvature="0" />
    <path
       style="fill:none;stroke:#0000ff;stroke-width:0.66500002;stroke-linecap:butt;stroke-linejoin:miter;stroke-miterlimit:4;stroke-dasharray:none;stroke-opacity:1"
       d="m -2.5135416,162.32708 c -0.2204861,0.0882 -0.4409723,0.17639 -0.6614584,0.26459 -0.044097,0.0441 -0.080403,0.0977 -0.1322916,0.13229 -0.082044,0.0547 -0.1948596,0.0626 -0.2645834,0.13229 -0.069724,0.0697 -0.077596,0.18254 -0.1322916,0.26458 -0.1297758,0.19466 -0.3993909,0.3345 -0.5291667,0.52917 -0.2529599,0.37944 -0.011623,0.41431 -0.2645833,0.79375 -0.034593,0.0519 -0.1125707,0.0731 -0.1322917,0.13229 -0.041834,0.1255 0.041834,0.27137 0,0.39688 -0.031181,0.0935 -0.1011102,0.17103 -0.1322916,0.26458 -0.013944,0.0418 0,0.0882 0,0.13229 0,0.0882 0,0.17639 0,0.26458 0,0.0441 -0.019722,0.0928 0,0.1323 0.055779,0.11155 0.2088041,0.15302 0.2645833,0.26458 0.019722,0.0394 -0.031181,0.10111 0,0.13229 0.031181,0.0312 0.09285,-0.0197 0.1322917,0 0.055779,0.0279 0.076512,0.1044 0.1322916,0.13229 0.039442,0.0197 0.09285,-0.0197 0.1322917,0 0.055779,0.0279 0.076513,0.1044 0.1322916,0.13229 0.078883,0.0394 0.1857,-0.0394 0.2645834,0 0.055779,0.0279 0.076513,0.10441 0.1322916,0.1323 0.1195512,0.0598 0.3418245,-0.11395 0.396875,-0.1323 0.041834,-0.0139 0.090457,0.0139 0.1322917,0 0.4795957,-0.15986 0.094152,-0.0628 0.396875,-0.26458 0.082044,-0.0547 0.1763889,-0.0882 0.2645833,-0.13229 0.1763889,-0.0882 0.3527778,-0.17639 0.5291667,-0.26458 0.088194,-0.0441 0.1825395,-0.0776 0.2645833,-0.1323 0.051889,-0.0346 0.080403,-0.0977 0.1322917,-0.13229 0.082044,-0.0547 0.1825395,-0.0776 0.2645833,-0.13229 0.1037781,-0.0692 0.1530252,-0.20881 0.26458335,-0.26458 0.0394418,-0.0197 0.0928499,0.0197 0.13229166,0 0.29250415,-0.14626 0.0410529,-0.0821 0.13229167,-0.26459 0.0278895,-0.0558 0.10440212,-0.0765 0.13229166,-0.13229 0.019721,-0.0394 -0.019721,-0.0928 0,-0.13229 0.0278895,-0.0558 0.10440212,-0.0765 0.13229166,-0.13229 0.019721,-0.0394 -0.019721,-0.0928 0,-0.13229 0.0278895,-0.0558 0.11257079,-0.0731 0.13229167,-0.13229 0.0278895,-0.0837 -0.0278895,-0.18092 0,-0.26459 0.0197209,-0.0592 0.11257079,-0.0731 0.13229167,-0.13229 0.14625207,-0.43876 -0.041053,-0.12316 -0.13229167,-0.39687 -0.0278895,-0.0837 0.0278895,-0.18092 0,-0.26459 -0.058485,-0.17545 -0.51744858,-0.30087 -0.66145832,-0.39687 -0.0518891,-0.0346 -0.0804027,-0.0977 -0.13229165,-0.13229 -0.1046829,-0.0698 -0.6769566,-0.35795 -0.79375,-0.39688 -0.041834,-0.0139 -0.088194,0 -0.1322917,0"
       id="path5397"
       inkscape:connector-curvature="0" />
    <path
       style="fill:none;stroke:#0000ff;stroke-width:0.66500002;stroke-linecap:butt;stroke-linejoin:miter;stroke-miterlimit:4;stroke-dasharray:none;stroke-opacity:1"
       d="m -6.8791666,148.17187 c 0.3658145,-0.20984 0.6350482,-0.50275 0.9260417,-0.79375 0.044097,-0.0441 0.097699,-0.0804 0.1322916,-0.13229 0.054696,-0.082 0.077596,-0.18254 0.1322917,-0.26458 0.034593,-0.0519 0.1044022,-0.0765 0.1322917,-0.13229 0.019722,-0.0395 -0.031181,-0.10111 0,-0.13229 0.031181,-0.0312 0.1011102,0.0312 0.1322916,0 0.031181,-0.0312 -0.031181,-0.10111 0,-0.1323 0.031181,-0.0312 0.1011103,0.0312 0.1322917,0 0.031181,-0.0312 -0.031181,-0.10111 0,-0.13229 0.031181,-0.0312 0.088194,0 0.1322917,0 0.044097,0 0.09285,-0.0197 0.1322916,0 0.055779,0.0279 0.073129,0.11257 0.1322917,0.13229 0.083669,0.0279 0.1790221,-0.0214 0.2645833,0 0.09566,0.0239 0.1710391,0.10111 0.2645834,0.1323 0.041834,0.0139 0.09285,-0.0197 0.1322916,0 0.2035355,0.10176 0.1322917,0.34925 0.1322917,0.52916 0,0.17639 0.034593,0.3562 0,0.52917 -0.027348,0.13674 -0.088194,0.26458 -0.1322917,0.39687"
       id="path5399"
       inkscape:connector-curvature="0" />
    <path
       style="fill:none;stroke:#0000ff;stroke-width:0.66500002;stroke-linecap:butt;stroke-linejoin:miter;stroke-miterlimit:4;stroke-dasharray:none;stroke-opacity:1"
       d="m -6.2177083,131.63542 c 0.2095821,-0.16767 0.5935986,-0.55065 0.9260417,-0.66146 0.041834,-0.0139 0.09285,0.0197 0.1322917,0 0.055779,-0.0279 0.069929,-0.13229 0.1322916,-0.13229 0.062363,0 0.076512,0.1044 0.1322917,0.13229 0.039442,0.0197 0.1011102,-0.0312 0.1322917,0 0.031181,0.0312 0,0.0882 0,0.13229 0,0.0882 0,0.17639 0,0.26458 0,0.17639 0,0.35278 0,0.52917 0,0.0882 0.017296,0.1781 0,0.26458 -0.027348,0.13674 -0.080502,0.2674 -0.1322917,0.39688 -0.036621,0.0915 -0.1129538,0.16789 -0.1322917,0.26458 -0.025945,0.12972 0.021749,0.26638 0,0.39688 -0.022926,0.13755 -0.1093665,0.25932 -0.1322916,0.39687 -0.021749,0.13049 0.025945,0.26715 0,0.39688 -0.019338,0.0967 -0.1129538,0.16789 -0.1322917,0.26458 -0.025945,0.12972 0.025945,0.26715 0,0.39687 -0.019338,0.0967 -0.1011103,0.17104 -0.1322917,0.26459 -0.013943,0.0418 0,0.0882 0,0.13229 0,0.0882 0,0.17639 0,0.26458 0,0.0441 -0.031181,0.10111 0,0.13229 0.1717334,0.17174 0.319582,0.1323 0.5291667,0.1323 0.1322917,0 0.2671524,0.0259 0.396875,0 0.09669,-0.0193 0.176389,-0.0882 0.2645833,-0.1323"
       id="path5401"
       inkscape:connector-curvature="0" />
    <path
       style="fill:none;stroke:#0000ff;stroke-width:0.66500002;stroke-linecap:butt;stroke-linejoin:miter;stroke-miterlimit:4;stroke-dasharray:none;stroke-opacity:1"
       d="m -9.1281249,113.37917 c 0.176389,-0.17639 0.3527777,-0.35278 0.5291667,-0.52917 0.044097,0 0.09285,0.0197 0.1322916,0 0.055779,-0.0279 0.073129,-0.11257 0.1322917,-0.13229 0.083669,-0.0279 0.1790221,0.0214 0.2645833,0 0.1913208,-0.0478 0.337846,-0.21676 0.5291667,-0.26459 0.085561,-0.0214 0.176389,0 0.2645833,0 0.088194,0 0.176389,0 0.2645834,0 0.088194,0 0.1763889,0 0.2645833,0 0.044097,0 0.09285,-0.0197 0.1322917,0 0.055779,0.0279 0.088194,0.0882 0.1322916,0.1323 0.044097,0.0441 0.1044022,0.0765 0.1322917,0.13229 0.019722,0.0394 0,0.0882 0,0.13229 0,0.0441 0,0.0882 0,0.13229 0,0.26458 0,0.52917 0,0.79375 0,0.0882 -0.021392,0.17902 0,0.26458 0.04783,0.19133 0.2167533,0.33785 0.2645833,0.52917 0.021392,0.0856 -0.021392,0.17902 0,0.26458 0.023916,0.0957 0.1322917,0.16598 0.1322917,0.26459 0,0.0986 -0.1083765,0.16892 -0.1322917,0.26458 -0.021392,0.0856 0.039442,0.1857 0,0.26458 -0.1099648,0.21993 -0.5012219,0.39564 -0.6614583,0.52917 -0.1437254,0.11977 -0.2531496,0.2771 -0.396875,0.39688 -0.1221433,0.10178 -0.2674956,0.17216 -0.396875,0.26458 -0.1794169,0.12815 -0.3497498,0.26872 -0.5291667,0.39687 -0.3303807,0.23599 -0.79375,0.45656 -0.79375,0.92605"
       id="path5403"
       inkscape:connector-curvature="0" />
    <path
       style="fill:none;stroke:#0000ff;stroke-width:0.66500002;stroke-linecap:butt;stroke-linejoin:miter;stroke-miterlimit:4;stroke-dasharray:none;stroke-opacity:1"
       d="m -8.5989582,101.86979 c -0.327269,0.57718 -0.2645834,0.5153 -0.2645834,1.05834 0,0.0441 0.019722,0.0928 0,0.13229 -0.1094864,0.21897 -0.2527374,0.0355 -0.1322916,0.39687 0.019722,0.0592 0.1044022,0.0765 0.1322916,0.13229 0.019722,0.0394 -0.031181,0.10111 0,0.1323 0.1717334,0.17173 0.319582,0.13229 0.5291667,0.13229 0.1322917,0 0.2645833,0 0.396875,0 0.176389,0 0.3545507,0.025 0.5291667,0 0.138046,-0.0197 0.2627926,-0.094 0.396875,-0.13229 0.1748218,-0.05 0.3491764,-0.10658 0.5291666,-0.1323 0.6936711,-0.0991 0.1308264,0.13303 0.6614583,-0.13229"
       id="path5409"
       inkscape:connector-curvature="0" />
    <path
       style="fill:none;stroke:#0000ff;stroke-width:0.66500002;stroke-linecap:butt;stroke-linejoin:miter;stroke-miterlimit:4;stroke-dasharray:none;stroke-opacity:1"
       d="m -5.8208333,103.45729 c 0.1322917,-0.79375 0.308011,-1.58147 0.396875,-2.38125 0.00487,-0.0438 -0.1011102,-0.0312 -0.1322916,0 -0.031181,0.0312 0.013943,0.0905 0,0.13229 -0.1717334,0.5152 -0.1322917,0.0124 -0.1322917,0.52917 0,0.26458 0.026326,0.53048 0,0.79375 -0.031027,0.31027 -0.1545074,0.61502 -0.1322917,0.92604 0.022873,0.32022 0.2118059,0.60938 0.2645834,0.92604 0.036248,0.21749 0,0.44097 0,0.66146 0,0.13229 0.021749,0.52737 0,0.39688 -0.1097055,-0.65824 -0.176389,-1.32292 -0.2645834,-1.98438"
       id="path5411"
       inkscape:connector-curvature="0" />
    <path
       style="fill:none;stroke:#0000ff;stroke-width:0.66500002;stroke-linecap:butt;stroke-linejoin:miter;stroke-miterlimit:4;stroke-dasharray:none;stroke-opacity:1"
       d="m -9.5249999,92.080208 c -0.1810837,-0.03133 -0.6441201,-0.299262 -0.7937501,0 -0.01972,0.03944 0.01972,0.09285 0,0.132292 -0.02789,0.05578 -0.112571,0.07313 -0.132292,0.132292 -0.02789,0.08367 0.02789,0.180914 0,0.264583 -0.01972,0.05916 -0.11257,0.07313 -0.132291,0.132292 -0.02789,0.08367 0,0.176387 0,0.264583 0,0.08819 0,0.176387 0,0.264583 0,0.08819 -0.02789,0.180915 0,0.264584 0.01972,0.05916 0.0977,0.0804 0.132291,0.132291 0.0547,0.08204 0.06257,0.194858 0.132292,0.264584 0.06972,0.06972 0.176389,0.08819 0.264583,0.132291 0.1763894,0.08819 0.3527781,0.176388 0.5291671,0.264584 0.088194,0.04409 0.1825395,0.07759 0.2645833,0.132291 0.1037781,0.06918 0.1530253,0.208804 0.2645834,0.264584 0.039442,0.01971 0.1322916,-0.0441 0.1322916,0 0,0.06236 -0.097699,0.0804 -0.1322916,0.132291 -0.054696,0.08204 -0.062568,0.194858 -0.1322917,0.264584 -0.069724,0.06972 -0.1856999,0.07313 -0.2645833,0.132291 -0.099781,0.07484 -0.1671889,0.186667 -0.2645833,0.264584 -0.1241542,0.09932 -0.2727209,0.165259 -0.3968755,0.264583 -0.194788,0.155829 -0.352777,0.352777 -0.529166,0.529167 -0.0882,0.08819 -0.176389,0.176387 -0.264584,0.264583 -0.0441,0.0441 -0.07651,0.104402 -0.132291,0.132292 -0.03944,0.01971 -0.0882,0 -0.132292,0"
       id="path5413"
       inkscape:connector-curvature="0" />
    <path
       style="fill:none;stroke:#0000ff;stroke-width:0.66500002;stroke-linecap:butt;stroke-linejoin:miter;stroke-miterlimit:4;stroke-dasharray:none;stroke-opacity:1"
       d="m -9.5249999,92.080206 c 0.088195,0.0441 0.165979,0.132292 0.2645833,0.132294 0.3325183,0 0.5262047,-0.263104 0.79375,-0.396875 0.1247259,-0.06236 0.2663061,-0.08333 0.396875,-0.132292 0.2223508,-0.08338 0.4391076,-0.181202 0.6614584,-0.264583 0.1305689,-0.04896 0.2645833,-0.0882 0.396875,-0.132292 -0.8378473,0.264581 -1.6756944,0.529165 -2.5135417,0.793748"
       id="path5415"
       inkscape:connector-curvature="0" />
    <path
       style="fill:none;stroke:#ff0000;stroke-width:0.986;stroke-linecap:butt;stroke-linejoin:miter;stroke-miterlimit:4;stroke-dasharray:none;stroke-opacity:1"
       d="m 50.417007,98.060221 c -0.188372,0 -0.02106,-0.02593 -0.0945,0.02751 -0.0056,0.0041 -0.01445,-0.0065 -0.0189,0 -0.0045,0.0065 0.0045,0.02102 0,0.02751 -0.0045,0.0065 -0.01445,-0.0065 -0.0189,0 -0.0045,0.0065 0.0028,0.01931 0,0.02751 -0.008,0.02319 -0.02983,0.03182 -0.0378,0.05501 -0.0028,0.0082 0.0028,0.0193 0,0.02751 -0.004,0.0116 -0.01492,0.01591 -0.0189,0.02751 -0.0028,0.0082 0.0028,0.0193 0,0.0275 -0.004,0.0116 -0.01492,0.01591 -0.0189,0.02751 -0.0056,0.0164 0.0056,0.03861 0,0.05501 -0.004,0.0116 -0.01491,0.01591 -0.0189,0.02751 -0.0028,0.0082 0,0.01834 0,0.02751 0,0.0092 0,0.01834 0,0.02751 0,0.04584 0,0.09169 0,0.137532 0,0.01239 -0.0029,0.07415 0,0.08252 0.004,0.01159 0.01492,0.01591 0.0189,0.02749 0.0028,0.0082 -0.0045,0.02102 0,0.02749 0.0045,0.0065 0.01445,-0.0065 0.0189,0 0.0045,0.0065 -0.0028,0.01932 0,0.02749 0.004,0.01158 0.01492,0.01591 0.0189,0.02749 0.0028,0.0082 -0.0045,0.02102 0,0.02749 0.0045,0.0065 0.01445,-0.0065 0.0189,0 0.03911,0.05691 -0.05976,-0.0024 0.0189,0.05501 0.0056,0.0041 0.01326,-0.0041 0.0189,0 0.008,0.0058 0.01093,0.0217 0.0189,0.02749 0.01127,0.0082 0.02653,-0.0082 0.0378,0 0.008,0.0058 0.01093,0.0217 0.0189,0.02749 0.01512,0.011 0.04158,-0.011 0.0567,0 0.008,0.0058 0.01093,0.0217 0.0189,0.02749 0.0056,0.0041 0.0126,0 0.0189,0 0.0063,0 0.01326,0.0041 0.0189,0 0.008,-0.0058 0.01093,-0.0217 0.0189,-0.02749 0.01127,-0.0082 0.02653,0.0082 0.0378,0 0.008,-0.0058 0.01093,-0.0217 0.0189,-0.02749 0.01127,-0.0082 0.02653,0.0082 0.0378,0 0.008,-0.0058 0.01093,-0.0217 0.0189,-0.02749 0.01512,-0.011 0.04158,0.011 0.0567,0 0.008,-0.0058 0.01093,-0.0217 0.0189,-0.02749 0.01127,-0.0082 0.02653,0.0082 0.0378,0 0.01594,-0.01158 0.02186,-0.04341 0.0378,-0.05501 0.02607,-0.01897 0.01691,0.03331 0.0378,-0.02749 0.0028,-0.0082 -0.0028,-0.01932 0,-0.02749 0.0084,-0.02438 0.04523,-0.05748 0.0567,-0.08252 0.06365,-0.138958 1.6e-4,-5.88e-4 0.0189,-0.08252 0.0045,-0.01945 0.01445,-0.03556 0.0189,-0.05501 0.002,-0.0087 -0.002,-0.01881 0,-0.02751 0.0045,-0.01945 0.01445,-0.03556 0.0189,-0.05501 0.002,-0.0087 0,-0.01834 0,-0.02751 0,-0.01834 0,-0.03668 0,-0.05501 0,-0.0092 0.0028,-0.0193 0,-0.02751 -0.004,-0.0116 -0.01492,-0.01591 -0.0189,-0.02751 -0.0028,-0.0082 0.0028,-0.0193 0,-0.0275 -0.0086,-0.02518 -0.04289,-0.04831 -0.0567,-0.05501 -0.006,-0.0029 -0.01327,0.0041 -0.0189,0 -0.008,-0.0058 -0.01093,-0.02171 -0.0189,-0.02751 -0.0056,-0.0041 -0.01292,0.0029 -0.0189,0 -0.01337,-0.0065 -0.02444,-0.02102 -0.0378,-0.02751 -0.01195,-0.0058 -0.02653,0.0082 -0.0378,0 -0.008,-0.0058 -0.01045,-0.02341 -0.0189,-0.02751 -0.02391,-0.0116 -0.05115,0.0089 -0.0756,0 -0.109413,-0.03981 0.04968,-0.02751 -0.0945,-0.02751 -0.0126,0 -0.02537,0.003 -0.0378,0 -0.02562,-0.0062 -0.04963,-0.0275 -0.0756,-0.0275 -0.04455,0 -0.0881,0.01947 -0.132304,0.0275 -0.0063,0.0011 -0.0126,0 -0.0189,0 -0.0063,0 -0.01326,0.0041 -0.0189,0 -0.04671,-0.03399 0.0065,-0.0275 -0.0378,-0.0275"
       id="path5455"
       inkscape:connector-curvature="0" />
    <path
       style="fill:none;stroke:#ff0000;stroke-width:0.986;stroke-linecap:butt;stroke-linejoin:miter;stroke-miterlimit:4;stroke-dasharray:none;stroke-opacity:1"
       d="m 76.496313,119.15085 c -0.188372,0 -0.02106,-0.0259 -0.0945,0.0275 -0.0056,0.004 -0.01445,-0.007 -0.0189,0 -0.0045,0.007 0.0045,0.021 0,0.0275 -0.0045,0.007 -0.01445,-0.007 -0.0189,0 -0.0045,0.007 0.0028,0.0193 0,0.0275 -0.008,0.0232 -0.02983,0.0318 -0.0378,0.055 -0.0028,0.008 0.0028,0.0193 0,0.0275 -0.004,0.0116 -0.01492,0.0159 -0.0189,0.0275 -0.0028,0.008 0.0028,0.0193 0,0.0275 -0.004,0.0116 -0.01492,0.0159 -0.0189,0.0275 -0.0056,0.0164 0.0056,0.0386 0,0.055 -0.004,0.0116 -0.01491,0.0159 -0.0189,0.0275 -0.0028,0.008 0,0.0183 0,0.0275 0,0.009 0,0.0183 0,0.0275 0,0.0458 0,0.0917 0,0.13753 0,0.0124 -0.0029,0.0741 0,0.0825 0.004,0.0116 0.01492,0.0159 0.0189,0.0275 0.0028,0.008 -0.0045,0.021 0,0.0275 0.0045,0.007 0.01445,-0.006 0.0189,0 0.0045,0.007 -0.0028,0.0193 0,0.0275 0.004,0.0116 0.01492,0.0159 0.0189,0.0275 0.0028,0.008 -0.0045,0.021 0,0.0275 0.0045,0.007 0.01445,-0.006 0.0189,0 0.03911,0.0569 -0.05976,-0.002 0.0189,0.055 0.0056,0.004 0.01326,-0.004 0.0189,0 0.008,0.006 0.01093,0.0217 0.0189,0.0275 0.01127,0.008 0.02653,-0.008 0.0378,0 0.008,0.006 0.01093,0.0217 0.0189,0.0275 0.01512,0.011 0.04158,-0.011 0.0567,0 0.008,0.006 0.01093,0.0217 0.0189,0.0275 0.0056,0.004 0.0126,0 0.0189,0 0.0063,0 0.01326,0.004 0.0189,0 0.008,-0.006 0.01093,-0.0217 0.0189,-0.0275 0.01127,-0.008 0.02653,0.008 0.0378,0 0.008,-0.006 0.01093,-0.0217 0.0189,-0.0275 0.01127,-0.008 0.02653,0.008 0.0378,0 0.008,-0.006 0.01093,-0.0217 0.0189,-0.0275 0.01512,-0.011 0.04158,0.011 0.0567,0 0.008,-0.006 0.01093,-0.0217 0.0189,-0.0275 0.01127,-0.008 0.02653,0.008 0.0378,0 0.01594,-0.0116 0.02186,-0.0434 0.0378,-0.055 0.02607,-0.019 0.01691,0.0333 0.0378,-0.0275 0.0028,-0.008 -0.0028,-0.0193 0,-0.0275 0.0084,-0.0244 0.04523,-0.0575 0.0567,-0.0825 0.06365,-0.13895 1.6e-4,-5.8e-4 0.0189,-0.0825 0.0045,-0.0194 0.01445,-0.0356 0.0189,-0.055 0.002,-0.009 -0.002,-0.0188 0,-0.0275 0.0045,-0.0194 0.01445,-0.0356 0.0189,-0.055 0.002,-0.009 0,-0.0183 0,-0.0275 0,-0.0183 0,-0.0367 0,-0.055 0,-0.009 0.0028,-0.0193 0,-0.0275 -0.004,-0.0116 -0.01492,-0.0159 -0.0189,-0.0275 -0.0028,-0.008 0.0028,-0.0193 0,-0.0275 -0.0086,-0.0252 -0.04289,-0.0483 -0.0567,-0.055 -0.006,-0.003 -0.01327,0.004 -0.0189,0 -0.008,-0.006 -0.01093,-0.0217 -0.0189,-0.0275 -0.0056,-0.004 -0.01292,0.003 -0.0189,0 -0.01337,-0.007 -0.02444,-0.021 -0.0378,-0.0275 -0.01195,-0.006 -0.02653,0.008 -0.0378,0 -0.008,-0.006 -0.01045,-0.0234 -0.0189,-0.0275 -0.02391,-0.0116 -0.05115,0.009 -0.0756,0 -0.109413,-0.0398 0.04968,-0.0275 -0.0945,-0.0275 -0.0126,0 -0.02537,0.003 -0.0378,0 -0.02562,-0.006 -0.04963,-0.0275 -0.0756,-0.0275 -0.04455,0 -0.0881,0.0195 -0.132304,0.0275 -0.0063,0.001 -0.0126,0 -0.0189,0 -0.0063,0 -0.01326,0.004 -0.0189,0 -0.04671,-0.034 0.0065,-0.0275 -0.0378,-0.0275"
       id="path5455-9"
       inkscape:connector-curvature="0" />
    <path
       style="fill:none;stroke:#8b8b8b;stroke-width:1;stroke-linecap:butt;stroke-linejoin:miter;stroke-opacity:1;stroke-miterlimit:4;stroke-dasharray:none"
       d="m 9.1031104,75.072643 c 0.4358328,3.922495 0.396875,2.373923 0.396875,4.630208 0,0.30868 0,0.617361 0,0.926042 0,0.132291 0.021749,0.266383 0,0.396875 -0.022926,0.13755 -0.1049438,0.260135 -0.1322917,0.396875 -0.017296,0.08648 0.017296,0.178101 0,0.264583 -0.027348,0.13674 -0.1125706,0.258829 -0.1322916,0.396875 -0.024945,0.174616 0,0.352778 0,0.529167 0,0.132291 0,0.264583 0,0.396875 0,0.132291 0.018709,0.265913 0,0.396875 -0.025712,0.17999 -0.106579,0.349176 -0.1322917,0.529166 -0.043215,0.302507 0.043215,0.623535 0,0.926042 -0.019722,0.138046 -0.1125707,0.258829 -0.1322917,0.396875 -0.024945,0.174616 0,0.352778 0,0.529167 0,0.529166 0,1.058333 0,1.587499 0,0.176389 0,0.352778 0,0.529167 0,0.220486 0.02435,0.442321 0,0.661458 -0.020079,0.180706 -0.1122132,0.348462 -0.1322916,0.529167 -0.02435,0.219138 0,0.440972 0,0.661458 0,0.705556 0,1.411112 0,2.116667 0,0.970139 0,1.940278 0,2.910417 0,0.220486 0,0.440972 0,0.661458 0,0.264583 -0.021974,0.530081 0,0.79375 0.022275,0.267306 0.1100161,0.526444 0.1322916,0.79375 0.021971,0.263669 0,0.529167 0,0.79375 0,0.837847 0,1.675694 0,2.513541 0,0.26458 -0.020294,0.52995 0,0.79375 0.023916,0.3109 0.1083766,0.61515 0.1322917,0.92604 0.020294,0.26381 0,0.52917 0,0.79375 0,0.26459 0,0.52917 0,0.79375 0,0.30868 -0.023675,0.61827 0,0.92604 0.020571,0.26745 0.1100161,0.52645 0.1322917,0.79375 0.021971,0.26367 0,0.52917 0,0.79375 0,0.26459 0,0.52917 0,0.79375 0,1.10243 0,2.20487 0,3.3073 0,1.80798 0,3.61597 0,5.42395 0,0.44098 0,0.88195 0,1.32292 0,0.26458 0.023955,0.53025 0,0.79375 -0.020357,0.22393 -0.1119344,0.43753 -0.1322917,0.66146 -0.043916,0.48308 0.048266,0.97255 0,1.45521 -0.022373,0.22373 -0.088194,0.44097 -0.1322917,0.66145 0,0.26459 0.023955,0.53026 0,0.79375 -0.020357,0.22393 -0.1099179,0.43773 -0.1322916,0.66146 -0.021939,0.2194 0.021939,0.44207 0,0.66146 -0.022373,0.22374 -0.1119344,0.43753 -0.1322917,0.66146 -0.043916,0.48308 0.048266,0.97255 0,1.45521 -0.1755325,1.75533 -0.1322916,-0.42402 -0.1322916,1.32291 0,0.39688 0,0.79375 0,1.19063 0,0.22049 0.02435,0.44232 0,0.66146 -0.020079,0.18071 -0.1122133,0.34846 -0.1322917,0.52916 -0.043827,0.39445 0.043827,0.79618 0,1.19063 -0.024831,0.22348 -0.1074608,0.43798 -0.1322917,0.66146 -0.043559,0.39203 0.043559,0.79859 0,1.19062 -0.020079,0.18071 -0.1097399,0.34876 -0.1322916,0.52917 -0.049226,0.39381 0.043827,0.79618 0,1.19062 -0.020079,0.18071 -0.1122133,0.34847 -0.1322917,0.52917 -0.065514,0.58963 0.065514,1.26246 0,1.85208 -0.020079,0.18071 -0.1097399,0.34876 -0.1322917,0.52917 -0.021878,0.17503 0,0.35278 0,0.52917 0,0.57326 0,1.14653 0,1.71979 0,0.17639 0,0.35278 0,0.52917 0,0.17639 0.021878,0.35414 0,0.52916 -0.02255,0.18042 -0.1097399,0.34876 -0.1322916,0.52917 -0.038287,0.3063 0,0.61736 0,0.92604 0,0.52917 0,1.05833 0,1.5875 0,0.44097 0,0.88195 0,1.32292 0,0.17639 -0.024945,0.35455 0,0.52916 0.019722,0.13805 0.1093665,0.25933 0.1322916,0.39688 0.021749,0.13049 0,0.26458 0,0.39687 0,0.26459 0,0.52917 0,0.79375 0,0.1323 -0.021749,0.26639 0,0.39688 0.022926,0.13755 0.1049438,0.26013 0.1322917,0.39687 0.017296,0.0865 0,0.17639 0,0.26459 0,0.26458 0,0.52916 0,0.79375 0,0.13229 -0.025945,0.26715 0,0.39687 0.019338,0.0967 0.1129538,0.1679 0.1322917,0.26459 0.025945,0.12972 0,0.26458 0,0.39687 0,0.35278 0,0.70556 0,1.05833 0,0.61737 0,1.23473 0,1.85209 0,0.22049 0,0.44097 0,0.66146 0,0.0882 -0.017296,0.1781 0,0.26458 0.027348,0.13674 0.1093665,0.25932 0.1322916,0.39687 0.021749,0.1305 0,0.26459 0,0.39688 0,0.0882 0.017296,0.1781 0,0.26458 -0.027348,0.13674 -0.1093666,0.25933 -0.1322916,0.39688 -0.021749,0.13049 0,0.26458 0,0.39687 0,0.35278 0,0.70556 0,1.05834 0,0.0882 0.017296,0.1781 0,0.26458 -0.027348,0.13674 -0.1049438,0.26013 -0.1322917,0.39687 -0.042401,0.21201 0.042401,0.44946 0,0.66146 -0.019338,0.0967 -0.1129538,0.1679 -0.1322917,0.26459 -0.042401,0.212 0.042401,0.44945 0,0.66145 -0.027348,0.13675 -0.1049438,0.26014 -0.1322916,0.39688 -0.017296,0.0865 0,0.17639 0,0.26458 0,0.17639 0,0.35278 0,0.52917 0,0.22049 0.043241,0.44525 0,0.66146 -0.019338,0.0967 -0.1083765,0.16892 -0.1322917,0.26458 -0.053476,0.21391 0.043241,0.44525 0,0.66146 -0.019338,0.0967 -0.1129538,0.16789 -0.1322917,0.26458 -0.025945,0.12972 0,0.26459 0,0.39688 0,0.0882 0.017296,0.1781 0,0.26458 -0.027348,0.13674 -0.1049438,0.26014 -0.1322916,0.39688 -0.017296,0.0865 0.017296,0.1781 0,0.26458 -0.027348,0.13674 -0.1049438,0.26013 -0.1322917,0.39687 -0.034593,0.17297 0.034593,0.35621 0,0.52917 -0.027348,0.13674 -0.1049438,0.26014 -0.1322917,0.39688 -0.048793,0.24396 0.048497,0.68355 0,0.92604 -0.019338,0.0967 -0.1129538,0.16789 -0.1322916,0.26458 -0.025678,0.12839 0,0.90136 0,1.05833 0,0.0882 0.021389,0.17903 0,0.26459 -0.023916,0.0957 -0.1083765,0.16892 -0.1322917,0.26458 -0.021389,0.0856 0,0.17639 0,0.26458 0,0.26459 0,0.52917 0,0.79375 0,0.66146 0,1.32292 0,1.98438 0,0.17639 0,0.35278 0,0.52917 0,0.0882 0.027889,0.18091 0,0.26458 -0.1520126,0.45604 -0.1322917,0.098 -0.1322917,0.39687 0,0.1323 0,0.26459 0,0.39688 0,0.0314 0.014825,0.49952 0,0.52917 -0.027889,0.0558 -0.1125706,0.0731 -0.1322916,0.13229 -0.025085,0.0753 0,0.53686 0,0.66146 0,0.44097 0,0.88194 0,1.32291 0,0.0321 -0.00425,0.39262 0,0.39688 0.031181,0.0312 0.088194,0 0.1322916,0"
       id="path848"
       inkscape:connector-curvature="0" />
    <path
       style="fill:none;stroke:#757575;stroke-width:1;stroke-linecap:butt;stroke-linejoin:miter;stroke-opacity:1;stroke-miterlimit:4;stroke-dasharray:none"
       d="m 9.1031101,75.072643 c 0.044097,0.132292 0.088195,0.264583 0.132292,0.396874 0.022048,0 0.066146,-0.02205 0.066146,0 0,0.02205 -0.050555,-0.01559 -0.066146,0 -0.015592,0.01559 0.00986,0.04643 0,0.06615 -0.017664,0.03533 -0.1636141,0.163614 -0.1984375,0.198438 -0.066146,0.06615 -0.1322917,0.132291 -0.1984375,0.198437 -0.022048,0.02205 -0.04885,0.0402 -0.066146,0.06615 -0.1457301,0.03331 -0.034964,0.136075 -0.066146,0.198438 -0.013946,0.02789 -0.056285,0.03656 -0.066146,0.06615 -0.013946,0.04184 0.013946,0.09046 0,0.132292 -0.00986,0.02958 -0.056285,0.03656 -0.066146,0.06615 -0.013946,0.04183 0.013946,0.09046 0,0.132292 -0.00986,0.02958 -0.056285,0.03656 -0.066146,0.06614 -0.013946,0.04184 0.013946,0.09046 0,0.132292 -0.00986,0.02958 -0.048849,0.0402 -0.066146,0.06615 -0.054696,0.08204 -0.077596,0.18254 -0.1322917,0.264583 -0.051889,0.07783 -0.1423109,0.123603 -0.1984375,0.198438 -0.029581,0.03944 -0.036565,0.09285 -0.066146,0.132291 -0.037418,0.04989 -0.094874,0.0824 -0.1322917,0.132292 -0.029581,0.03944 -0.044097,0.08819 -0.066146,0.132292 -0.044097,0.0441 -0.093334,0.08359 -0.1322917,0.132291 -0.1329452,0.166182 -0.1977839,0.362986 -0.3307291,0.529167 -0.038958,0.0487 -0.093334,0.08359 -0.1322917,0.132292 -0.049662,0.06208 -0.08263,0.13636 -0.1322917,0.198437 -0.038958,0.0487 -0.093334,0.0836 -0.1322916,0.132292 -0.049662,0.06208 -0.08263,0.136361 -0.1322917,0.198437 -0.1161584,0.145199 -0.2807166,0.251677 -0.396875,0.396875 -0.049662,0.06208 -0.08263,0.136361 -0.1322917,0.198438 -0.038958,0.0487 -0.093334,0.08359 -0.1322916,0.132292 -0.049662,0.06208 -0.081399,0.137366 -0.1322917,0.198437 -0.059886,0.07186 -0.138552,0.126575 -0.1984375,0.198438 -0.050893,0.06107 -0.081399,0.137366 -0.1322916,0.198437 -0.059886,0.07186 -0.138552,0.126575 -0.1984375,0.198438 -0.101786,0.122143 -0.1652601,0.272721 -0.2645834,0.396875 -0.038958,0.0487 -0.093334,0.08359 -0.1322916,0.132291 -0.049662,0.06208 -0.08263,0.136361 -0.1322917,0.198438 -0.2228715,0.278589 -0.060353,-0.01159 -0.1984375,0.264583"
       id="path850"
       inkscape:connector-curvature="0" />
    <path
       style="fill:none;stroke:#757575;stroke-width:1;stroke-linecap:butt;stroke-linejoin:miter;stroke-opacity:1;stroke-miterlimit:4;stroke-dasharray:none"
       d="m 9.2354018,75.469517 c 0.4752644,0.357535 0.4630211,0.219629 0.4630211,0.529167 0,0.02205 0.00986,0.04642 0,0.06615 -0.013946,0.02789 -0.052201,0.03826 -0.066146,0.06615 -0.042584,0.08517 0.044632,0.06775 0.066146,0.132291 0.013946,0.04184 -0.013946,0.09046 0,0.132292 0.00986,0.02958 0.048849,0.0402 0.066146,0.06615 0.027348,0.04102 0.031284,0.09743 0.066146,0.132292 0.034862,0.03486 0.09285,0.03656 0.1322916,0.06614 0.099781,0.07484 0.1648025,0.189749 0.2645835,0.264584 0.03944,0.02958 0.09285,0.03656 0.132291,0.06615 0.04989,0.03742 0.0824,0.09487 0.132292,0.132291 0.03944,0.02958 0.09285,0.03656 0.132292,0.06615 0.04989,0.03742 0.0824,0.09487 0.132291,0.132292 0.03944,0.02958 0.09285,0.03656 0.132292,0.06615 0.04989,0.03742 0.08819,0.08819 0.132292,0.132291 0.0441,0.0441 0.09487,0.0824 0.132291,0.132292 0.02958,0.03944 0.03656,0.09285 0.06615,0.132292 0.03742,0.04989 0.09487,0.0824 0.132292,0.132291 0.05916,0.07888 0.07313,0.1857 0.132291,0.264584 0.03742,0.04989 0.100207,0.07882 0.132292,0.132291 0.03587,0.05979 0.03027,0.13865 0.06615,0.198438 0.03209,0.05348 0.08819,0.08819 0.132292,0.132291 0.0441,0.0441 0.08819,0.0882 0.132291,0.132292 0.405047,0.405046 -0.08367,-0.111558 0.198438,0.264583 0.05613,0.07484 0.146548,0.120604 0.198437,0.198438 0.02735,0.04102 0.0388,0.09127 0.06615,0.132292 0.0173,0.02594 0.04885,0.0402 0.06615,0.06614 0.02735,0.04102 0.0388,0.09127 0.06615,0.132292 0.0173,0.02594 0.04885,0.0402 0.06615,0.06615 0.02735,0.04102 0.0388,0.09127 0.06614,0.132292 0.05189,0.07783 0.142311,0.123602 0.198438,0.198437 0.02958,0.03944 0.0388,0.09127 0.06615,0.132292 0.0173,0.02594 0.04885,0.0402 0.06615,0.06615 0.02735,0.04102 0.03128,0.09743 0.06614,0.132291 0.03486,0.03486 0.09127,0.0388 0.132292,0.06615 0.02595,0.0173 0.0441,0.0441 0.06615,0.06615 0.08819,0.08819 0.176389,0.176389 0.264583,0.264583 0.02205,0.02205 0.03826,0.0522 0.06615,0.06615 0.01972,0.0099 0.04642,-0.0099 0.06615,0 0.02789,0.01394 0.0441,0.0441 0.06615,0.06615 0.02205,0.02205 0.0522,0.03826 0.06615,0.06615 0.0099,0.01972 -0.01559,0.05055 0,0.06615 0.08819,0.08819 0.06615,-0.110243 0.06615,0.06615"
       id="path852"
       inkscape:connector-curvature="0" />
    <path
       style="fill:none;stroke:#6e6e6e;stroke-width:1;stroke-linecap:butt;stroke-linejoin:miter;stroke-opacity:1;stroke-miterlimit:4;stroke-dasharray:none"
       d="m 176.29162,157.17386 c -0.23554,0.006 -0.472,0.0411 -0.70662,0.0193 -0.0439,-0.004 -0.0583,-0.0671 -0.0936,-0.0935 -0.0279,-0.0209 -0.0612,-0.0338 -0.0935,-0.0468 -0.0458,-0.0183 -0.098,-0.0214 -0.14032,-0.0468 -0.0378,-0.0227 -0.0591,-0.066 -0.0935,-0.0935 -0.0439,-0.0351 -0.0935,-0.0624 -0.14032,-0.0935 -0.13999,-0.0933 -0.28404,-0.18284 -0.42094,-0.28063 -0.12687,-0.0906 -0.24946,-0.18709 -0.37418,-0.28063 -0.18696,-0.14022 -0.3768,-0.27748 -0.56127,-0.42095 -0.1576,-0.12258 -0.31181,-0.24945 -0.46772,-0.37418 -0.078,-0.0624 -0.15312,-0.12837 -0.23386,-0.18709 -0.0909,-0.0661 -0.18971,-0.12096 -0.28064,-0.18709 -0.25998,-0.18908 -0.48836,-0.41895 -0.74835,-0.60804 -0.18185,-0.13225 -0.37942,-0.24192 -0.56126,-0.37417 -0.47133,-0.34278 0.0178,-0.0355 -0.5145,-0.37418 -0.0767,-0.0488 -0.1621,-0.0845 -0.23386,-0.14032 -0.0696,-0.0541 -0.12072,-0.12901 -0.18709,-0.18708 -0.17425,-0.15248 -0.1462,-0.12669 -0.3274,-0.18709"
       id="path854"
       inkscape:connector-curvature="0" />
    <path
       style="fill:none;stroke:#6e6e6e;stroke-width:1;stroke-linecap:butt;stroke-linejoin:miter;stroke-opacity:1;stroke-miterlimit:4;stroke-dasharray:none"
       d="m 176.29162,157.17386 c -0.26672,0.0376 -0.53172,0.0907 -0.80017,0.11288 -0.0155,0.001 0.007,-0.0328 0,-0.0468 -0.01,-0.0197 -0.0247,-0.0468 -0.0468,-0.0468 -0.0156,0 0.007,0.0328 0,0.0468 -0.01,0.0197 -0.0369,0.0271 -0.0468,0.0468 -0.007,0.0139 0,0.0312 0,0.0468 -0.0156,0.0156 -0.0345,0.0284 -0.0468,0.0468 -0.0387,0.058 -0.0549,0.12908 -0.0935,0.18709 -0.0892,0.13384 -0.009,-0.0716 -0.0935,0.14032 -0.0183,0.0458 -0.0214,0.098 -0.0468,0.14031 -0.0227,0.0378 -0.066,0.0591 -0.0935,0.0935 -0.12859,0.16074 -0.156,0.27811 -0.3274,0.42095 -0.20068,0.16723 -0.0943,0.0103 -0.28063,0.23386 -0.16724,0.20068 -0.0103,0.0943 -0.23386,0.28063 -0.20069,0.16724 -0.0943,0.0103 -0.28064,0.23386 -0.036,0.0432 -0.0575,0.0971 -0.0935,0.14032 -0.0423,0.0508 -0.0935,0.0935 -0.14032,0.14032 -0.0468,0.0468 -0.0895,0.098 -0.14032,0.14031 -0.0432,0.036 -0.0964,0.0584 -0.14031,0.0935 -0.0344,0.0275 -0.0591,0.066 -0.0935,0.0935 -0.0468,0.0312 -0.0935,0.0624 -0.14031,0.0936 -0.0468,0.0312 -0.0964,0.0584 -0.14032,0.0935 -0.0689,0.0551 -0.11822,0.13199 -0.18709,0.18709 -0.0439,0.0351 -0.0964,0.0584 -0.14032,0.0935 -0.179,0.14321 -0.0257,0.0343 -0.14031,0.18709 -0.0265,0.0353 -0.0624,0.0624 -0.0935,0.0935 -0.078,0.0779 -0.15591,0.1559 -0.23386,0.23386 -0.0312,0.0312 -0.0624,0.0624 -0.0935,0.0935 -0.0156,0.0156 -0.0284,0.0345 -0.0468,0.0468 -0.029,0.0193 -0.0645,0.0274 -0.0935,0.0468 -0.0183,0.0122 -0.0284,0.0345 -0.0468,0.0468 -0.029,0.0193 -0.0645,0.0274 -0.0935,0.0468 -0.0426,0.0284 -0.0989,0.11959 -0.14032,0.14032 -0.0645,0.0323 -0.0418,-0.0566 -0.0935,0.0468 -0.014,0.0279 0.0139,0.0656 0,0.0935 -0.01,0.0197 -0.0369,0.0271 -0.0468,0.0468 -0.007,0.0139 0.007,0.0328 0,0.0468 -0.01,0.0197 -0.0345,0.0284 -0.0468,0.0468 -0.0193,0.029 -0.0221,0.0689 -0.0468,0.0935 -0.011,0.011 -0.0328,-0.007 -0.0468,0 -0.0197,0.01 -0.0312,0.0312 -0.0468,0.0468 -0.0156,0.0156 -0.0369,0.0271 -0.0468,0.0468 -0.007,0.0139 0.011,0.0358 0,0.0468 -0.011,0.011 -0.0357,-0.011 -0.0468,0 -0.011,0.011 0.007,0.0328 0,0.0468 -0.01,0.0197 -0.0369,0.0271 -0.0468,0.0468 -0.0139,0.0279 0.022,0.0715 0,0.0935 -0.011,0.011 -0.0357,-0.011 -0.0468,0 -0.022,0.022 0.022,0.0715 0,0.0935 -0.0624,0.0624 -0.0468,-0.078 -0.0468,0.0468"
       id="path858"
       inkscape:connector-curvature="0" />
  </g>
</svg>
